<svg id="my-svg" width="100%" xmlns="http://www.w3.org/2000/svg" xmlns:xlink="http://www.w3.org/1999/xlink" class="classDiagram" style="max-width: 472.023px; background-color: white;" viewBox="0 0 472.0234375 354" role="graphics-document document" aria-roledescription="class"><style>#my-svg{font-family:"trebuchet ms",verdana,arial,sans-serif;font-size:16px;fill:#333;}@keyframes edge-animation-frame{from{stroke-dashoffset:0;}}@keyframes dash{to{stroke-dashoffset:0;}}#my-svg .edge-animation-slow{stroke-dasharray:9,5!important;stroke-dashoffset:900;animation:dash 50s linear infinite;stroke-linecap:round;}#my-svg .edge-animation-fast{stroke-dasharray:9,5!important;stroke-dashoffset:900;animation:dash 20s linear infinite;stroke-linecap:round;}#my-svg .error-icon{fill:#552222;}#my-svg .error-text{fill:#552222;stroke:#552222;}#my-svg .edge-thickness-normal{stroke-width:1px;}#my-svg .edge-thickness-thick{stroke-width:3.5px;}#my-svg .edge-pattern-solid{stroke-dasharray:0;}#my-svg .edge-thickness-invisible{stroke-width:0;fill:none;}#my-svg .edge-pattern-dashed{stroke-dasharray:3;}#my-svg .edge-pattern-dotted{stroke-dasharray:2;}#my-svg .marker{fill:#333333;stroke:#333333;}#my-svg .marker.cross{stroke:#333333;}#my-svg svg{font-family:"trebuchet ms",verdana,arial,sans-serif;font-size:16px;}#my-svg p{margin:0;}#my-svg g.classGroup text{fill:#9370DB;stroke:none;font-family:"trebuchet ms",verdana,arial,sans-serif;font-size:10px;}#my-svg g.classGroup text .title{font-weight:bolder;}#my-svg .cluster-label text{fill:#333;}#my-svg .cluster-label span{color:#333;}#my-svg .cluster-label span p{background-color:transparent;}#my-svg .cluster rect{fill:#ffffde;stroke:#aaaa33;stroke-width:1px;}#my-svg .cluster text{fill:#333;}#my-svg .cluster span{color:#333;}#my-svg .nodeLabel,#my-svg .edgeLabel{color:#131300;}#my-svg .edgeLabel .label rect{fill:#ECECFF;}#my-svg .label text{fill:#131300;}#my-svg .labelBkg{background:#ECECFF;}#my-svg .edgeLabel .label span{background:#ECECFF;}#my-svg .classTitle{font-weight:bolder;}#my-svg .node rect,#my-svg .node circle,#my-svg .node ellipse,#my-svg .node polygon,#my-svg .node path{fill:#ECECFF;stroke:#9370DB;stroke-width:1px;}#my-svg .divider{stroke:#9370DB;stroke-width:1;}#my-svg g.clickable{cursor:pointer;}#my-svg g.classGroup rect{fill:#ECECFF;stroke:#9370DB;}#my-svg g.classGroup line{stroke:#9370DB;stroke-width:1;}#my-svg .classLabel .box{stroke:none;stroke-width:0;fill:#ECECFF;opacity:0.5;}#my-svg .classLabel .label{fill:#9370DB;font-size:10px;}#my-svg .relation{stroke:#333333;stroke-width:1;fill:none;}#my-svg .dashed-line{stroke-dasharray:3;}#my-svg .dotted-line{stroke-dasharray:1 2;}#my-svg #compositionStart,#my-svg .composition{fill:#333333!important;stroke:#333333!important;stroke-width:1;}#my-svg #compositionEnd,#my-svg .composition{fill:#333333!important;stroke:#333333!important;stroke-width:1;}#my-svg #dependencyStart,#my-svg .dependency{fill:#333333!important;stroke:#333333!important;stroke-width:1;}#my-svg #dependencyStart,#my-svg .dependency{fill:#333333!important;stroke:#333333!important;stroke-width:1;}#my-svg #extensionStart,#my-svg .extension{fill:transparent!important;stroke:#333333!important;stroke-width:1;}#my-svg #extensionEnd,#my-svg .extension{fill:transparent!important;stroke:#333333!important;stroke-width:1;}#my-svg #aggregationStart,#my-svg .aggregation{fill:transparent!important;stroke:#333333!important;stroke-width:1;}#my-svg #aggregationEnd,#my-svg .aggregation{fill:transparent!important;stroke:#333333!important;stroke-width:1;}#my-svg #lollipopStart,#my-svg .lollipop{fill:#ECECFF!important;stroke:#333333!important;stroke-width:1;}#my-svg #lollipopEnd,#my-svg .lollipop{fill:#ECECFF!important;stroke:#333333!important;stroke-width:1;}#my-svg .edgeTerminals{font-size:11px;line-height:initial;}#my-svg .classTitleText{text-anchor:middle;font-size:18px;fill:#333;}#my-svg .label-icon{display:inline-block;height:1em;overflow:visible;vertical-align:-0.125em;}#my-svg .node .label-icon path{fill:currentColor;stroke:revert;stroke-width:revert;}#my-svg :root{--mermaid-font-family:"trebuchet ms",verdana,arial,sans-serif;}</style><g><defs><marker id="my-svg_class-aggregationStart" class="marker aggregation class" refX="18" refY="7" markerWidth="190" markerHeight="240" orient="auto"><path d="M 18,7 L9,13 L1,7 L9,1 Z"/></marker></defs><defs><marker id="my-svg_class-aggregationEnd" class="marker aggregation class" refX="1" refY="7" markerWidth="20" markerHeight="28" orient="auto"><path d="M 18,7 L9,13 L1,7 L9,1 Z"/></marker></defs><defs><marker id="my-svg_class-extensionStart" class="marker extension class" refX="18" refY="7" markerWidth="190" markerHeight="240" orient="auto"><path d="M 1,7 L18,13 V 1 Z"/></marker></defs><defs><marker id="my-svg_class-extensionEnd" class="marker extension class" refX="1" refY="7" markerWidth="20" markerHeight="28" orient="auto"><path d="M 1,1 V 13 L18,7 Z"/></marker></defs><defs><marker id="my-svg_class-compositionStart" class="marker composition class" refX="18" refY="7" markerWidth="190" markerHeight="240" orient="auto"><path d="M 18,7 L9,13 L1,7 L9,1 Z"/></marker></defs><defs><marker id="my-svg_class-compositionEnd" class="marker composition class" refX="1" refY="7" markerWidth="20" markerHeight="28" orient="auto"><path d="M 18,7 L9,13 L1,7 L9,1 Z"/></marker></defs><defs><marker id="my-svg_class-dependencyStart" class="marker dependency class" refX="6" refY="7" markerWidth="190" markerHeight="240" orient="auto"><path d="M 5,7 L9,13 L1,7 L9,1 Z"/></marker></defs><defs><marker id="my-svg_class-dependencyEnd" class="marker dependency class" refX="13" refY="7" markerWidth="20" markerHeight="28" orient="auto"><path d="M 18,7 L9,13 L14,7 L9,1 Z"/></marker></defs><defs><marker id="my-svg_class-lollipopStart" class="marker lollipop class" refX="13" refY="7" markerWidth="190" markerHeight="240" orient="auto"><circle fill="transparent" cx="7" cy="7" r="6"/></marker></defs><defs><marker id="my-svg_class-lollipopEnd" class="marker lollipop class" refX="1" refY="7" markerWidth="190" markerHeight="240" orient="auto"><circle fill="transparent" cx="7" cy="7" r="6"/></marker></defs><g class="root"><g class="clusters"/><g class="edgePaths"><path d="M281.602,117L272.393,110.833C263.183,104.667,244.763,92.333,229.753,86.167C214.742,80,203.141,80,197.34,80L191.539,80" id="id_Student_IdCard_1" class="edge-thickness-normal edge-pattern-solid relation" style=";;;" data-edge="true" data-et="edge" data-id="id_Student_IdCard_1" data-points="W3sieCI6MjgxLjYwMjM2NzkxMjM3MTE2LCJ5IjoxMTd9LHsieCI6MjI2LjM0Mzc1LCJ5Ijo4MH0seyJ4IjoxNzQuMjg5MDYyNSwieSI6ODB9XQ==" marker-end="url(#my-svg_class-aggregationEnd)"/><path d="M281.602,237L272.393,243.167C263.183,249.333,244.763,261.667,228.897,267.833C213.03,274,199.716,274,193.059,274L186.402,274" id="id_Student_Bike_2" class="edge-thickness-normal edge-pattern-solid relation" style=";;;" data-edge="true" data-et="edge" data-id="id_Student_Bike_2" data-points="W3sieCI6MjgxLjYwMjM2NzkxMjM3MTE2LCJ5IjoyMzd9LHsieCI6MjI2LjM0Mzc1LCJ5IjoyNzR9LHsieCI6MTY5LjE1MjM0Mzc1LCJ5IjoyNzR9XQ==" marker-end="url(#my-svg_class-aggregationEnd)"/></g><g class="edgeLabels"><g class="edgeLabel" transform="translate(226.34375, 80)"><g class="label" data-id="id_Student_IdCard_1" transform="translate(-27.0546875, -12)"><foreignObject width="54.109375" height="24"><div xmlns="http://www.w3.org/1999/xhtml" class="labelBkg" style="display: table-cell; white-space: nowrap; line-height: 1.5; max-width: 200px; text-align: center;"><span class="edgeLabel"><p>carries</p></span></div></foreignObject></g></g><g class="edgeLabel" transform="translate(226.34375, 274)"><g class="label" data-id="id_Student_Bike_2" transform="translate(-19.6796875, -12)"><foreignObject width="39.359375" height="24"><div xmlns="http://www.w3.org/1999/xhtml" class="labelBkg" style="display: table-cell; white-space: nowrap; line-height: 1.5; max-width: 200px; text-align: center;"><span class="edgeLabel"><p>rides</p></span></div></foreignObject></g></g><g class="edgeTerminals" transform="translate(275.40667924134794, 94.79947368776062)"><g class="inner" transform="translate(-3.5, -8.25)"><foreignObject width="7" height="16.5" style="width: 9px; height: 12px;"><div xmlns="http://www.w3.org/1999/xhtml" style="display: table-cell; white-space: nowrap; line-height: 1.5;"><span class="edgeLabel"><p>1</p></span></div></foreignObject></g></g><g class="edgeTerminals" transform="translate(258.71544867102324, 234.2725736877606)"><g class="inner" transform="translate(-3.5, -8.25)"><foreignObject width="7" height="16.5" style="width: 9px; height: 12px;"><div xmlns="http://www.w3.org/1999/xhtml" style="display: table-cell; white-space: nowrap; line-height: 1.5;"><span class="edgeLabel"><p>1</p></span></div></foreignObject></g></g><g class="edgeTerminals" transform="translate(186.78906125, 90)"><g class="inner" transform="translate(-3.5, -8.25)"/><foreignObject width="7" height="16.5" style="width: 9px; height: 12px;"><div xmlns="http://www.w3.org/1999/xhtml" style="display: table-cell; white-space: nowrap; line-height: 1.5;"><span class="edgeLabel"><p>1</p></span></div></foreignObject></g><g class="edgeTerminals" transform="translate(181.652341875, 284)"><g class="inner" transform="translate(-3.5, -8.25)"/><foreignObject width="7" height="16.5" style="width: 9px; height: 12px;"><div xmlns="http://www.w3.org/1999/xhtml" style="display: table-cell; white-space: nowrap; line-height: 1.5;"><span class="edgeLabel"><p>1</p></span></div></foreignObject></g></g><g class="nodes"><g class="node default" id="classId-Student-0" transform="translate(371.2109375, 177)"><g class="basic label-container"><path d="M-92.8125 -60 L92.8125 -60 L92.8125 60 L-92.8125 60" stroke="none" stroke-width="0" fill="#ECECFF" style=""/><path d="M-92.8125 -60 C-51.21803388619146 -60, -9.623567772382927 -60, 92.8125 -60 M-92.8125 -60 C-22.182952255648814 -60, 48.44659548870237 -60, 92.8125 -60 M92.8125 -60 C92.8125 -12.406741288516542, 92.8125 35.186517422966915, 92.8125 60 M92.8125 -60 C92.8125 -23.77655017820375, 92.8125 12.446899643592502, 92.8125 60 M92.8125 60 C49.098065005097965 60, 5.38363001019593 60, -92.8125 60 M92.8125 60 C31.780652026250486 60, -29.251195947499028 60, -92.8125 60 M-92.8125 60 C-92.8125 12.918779475220255, -92.8125 -34.16244104955949, -92.8125 -60 M-92.8125 60 C-92.8125 13.77922571021626, -92.8125 -32.44154857956748, -92.8125 -60" stroke="#9370DB" stroke-width="1.3" fill="none" stroke-dasharray="0 0" style=""/></g><g class="annotation-group text" transform="translate(0, -36)"/><g class="label-group text" transform="translate(-35.953125, -36)"><g class="label" style="font-weight: bolder" transform="translate(0,-12)"><foreignObject width="71.90625" height="24"><div xmlns="http://www.w3.org/1999/xhtml" style="display: table-cell; white-space: nowrap; line-height: 1.5; max-width: 113px; text-align: center;"><span class="nodeLabel markdown-node-label" style=""><p>Student</p></span></div></foreignObject></g></g><g class="members-group text" transform="translate(-80.8125, 12)"><g class="label" style="" transform="translate(0,-12)"><foreignObject width="125.671875" height="24"><div xmlns="http://www.w3.org/1999/xhtml" style="display: table-cell; white-space: nowrap; line-height: 1.5; max-width: 181px; text-align: center;"><span class="nodeLabel markdown-node-label" style=""><p>-idCard : IdCard</p></span></div></foreignObject></g></g><g class="methods-group text" transform="translate(-80.8125, 60)"/><g class="divider" style=""><path d="M-92.8125 -12 C-30.623931219409933 -12, 31.564637561180135 -12, 92.8125 -12 M-92.8125 -12 C-55.36413412320535 -12, -17.915768246410707 -12, 92.8125 -12" stroke="#9370DB" stroke-width="1.3" fill="none" stroke-dasharray="0 0" style=""/></g><g class="divider" style=""><path d="M-92.8125 36 C-52.70102498193985 36, -12.589549963879705 36, 92.8125 36 M-92.8125 36 C-52.891214511599976 36, -12.969929023199953 36, 92.8125 36" stroke="#9370DB" stroke-width="1.3" fill="none" stroke-dasharray="0 0" style=""/></g></g><g class="node default" id="classId-IdCard-1" transform="translate(91.14453125, 80)"><g class="basic label-container"><path d="M-83.14453125 -72 L83.14453125 -72 L83.14453125 72 L-83.14453125 72" stroke="none" stroke-width="0" fill="#ECECFF" style=""/><path d="M-83.14453125 -72 C-49.39693406318292 -72, -15.649336876365837 -72, 83.14453125 -72 M-83.14453125 -72 C-45.80410470414008 -72, -8.46367815828016 -72, 83.14453125 -72 M83.14453125 -72 C83.14453125 -28.224115291783022, 83.14453125 15.551769416433956, 83.14453125 72 M83.14453125 -72 C83.14453125 -36.45238281511088, 83.14453125 -0.9047656302217604, 83.14453125 72 M83.14453125 72 C32.924461173335935 72, -17.29560890332813 72, -83.14453125 72 M83.14453125 72 C47.69432662282073 72, 12.244121995641464 72, -83.14453125 72 M-83.14453125 72 C-83.14453125 23.761172859046354, -83.14453125 -24.47765428190729, -83.14453125 -72 M-83.14453125 72 C-83.14453125 31.152842538726055, -83.14453125 -9.694314922547889, -83.14453125 -72" stroke="#9370DB" stroke-width="1.3" fill="none" stroke-dasharray="0 0" style=""/></g><g class="annotation-group text" transform="translate(0, -48)"/><g class="label-group text" transform="translate(-29.6484375, -48)"><g class="label" style="font-weight: bolder" transform="translate(0,-12)"><foreignObject width="59.296875" height="24"><div xmlns="http://www.w3.org/1999/xhtml" style="display: table-cell; white-space: nowrap; line-height: 1.5; max-width: 102px; text-align: center;"><span class="nodeLabel markdown-node-label" style=""><p>IdCard</p></span></div></foreignObject></g></g><g class="members-group text" transform="translate(-71.14453125, 0)"><g class="label" style="" transform="translate(0,-12)"><foreignObject width="56.796875" height="24"><div xmlns="http://www.w3.org/1999/xhtml" style="display: table-cell; white-space: nowrap; line-height: 1.5; max-width: 112px; text-align: center;"><span class="nodeLabel markdown-node-label" style=""><p>-id : int</p></span></div></foreignObject></g><g class="label" style="" transform="translate(0,12)"><foreignObject width="112.640625" height="24"><div xmlns="http://www.w3.org/1999/xhtml" style="display: table-cell; white-space: nowrap; line-height: 1.5; max-width: 168px; text-align: center;"><span class="nodeLabel markdown-node-label" style=""><p>-name : string</p></span></div></foreignObject></g></g><g class="methods-group text" transform="translate(-71.14453125, 72)"/><g class="divider" style=""><path d="M-83.14453125 -24 C-32.80029497979412 -24, 17.543941290411766 -24, 83.14453125 -24 M-83.14453125 -24 C-32.35620196623406 -24, 18.43212731753188 -24, 83.14453125 -24" stroke="#9370DB" stroke-width="1.3" fill="none" stroke-dasharray="0 0" style=""/></g><g class="divider" style=""><path d="M-83.14453125 48 C-18.87745631316065 48, 45.3896186236787 48, 83.14453125 48 M-83.14453125 48 C-22.956095560047565 48, 37.23234012990487 48, 83.14453125 48" stroke="#9370DB" stroke-width="1.3" fill="none" stroke-dasharray="0 0" style=""/></g></g><g class="node default" id="classId-Bike-2" transform="translate(91.14453125, 274)"><g class="basic label-container"><path d="M-78.0078125 -72 L78.0078125 -72 L78.0078125 72 L-78.0078125 72" stroke="none" stroke-width="0" fill="#ECECFF" style=""/><path d="M-78.0078125 -72 C-17.372241513307493 -72, 43.263329473385014 -72, 78.0078125 -72 M-78.0078125 -72 C-19.0396096434228 -72, 39.9285932131544 -72, 78.0078125 -72 M78.0078125 -72 C78.0078125 -23.04983885428507, 78.0078125 25.90032229142986, 78.0078125 72 M78.0078125 -72 C78.0078125 -20.093926742556768, 78.0078125 31.812146514886464, 78.0078125 72 M78.0078125 72 C18.04006014337712 72, -41.92769221324576 72, -78.0078125 72 M78.0078125 72 C42.69343463510914 72, 7.379056770218284 72, -78.0078125 72 M-78.0078125 72 C-78.0078125 41.62637366638257, -78.0078125 11.25274733276514, -78.0078125 -72 M-78.0078125 72 C-78.0078125 15.833103545304311, -78.0078125 -40.33379290939138, -78.0078125 -72" stroke="#9370DB" stroke-width="1.3" fill="none" stroke-dasharray="0 0" style=""/></g><g class="annotation-group text" transform="translate(0, -48)"/><g class="label-group text" transform="translate(-19.375, -48)"><g class="label" style="font-weight: bolder" transform="translate(0,-12)"><foreignObject width="38.75" height="24"><div xmlns="http://www.w3.org/1999/xhtml" style="display: table-cell; white-space: nowrap; line-height: 1.5; max-width: 84px; text-align: center;"><span class="nodeLabel markdown-node-label" style=""><p>Bike</p></span></div></foreignObject></g></g><g class="members-group text" transform="translate(-66.0078125, 0)"><g class="label" style="" transform="translate(0,-12)"><foreignObject width="56.796875" height="24"><div xmlns="http://www.w3.org/1999/xhtml" style="display: table-cell; white-space: nowrap; line-height: 1.5; max-width: 112px; text-align: center;"><span class="nodeLabel markdown-node-label" style=""><p>-id : int</p></span></div></foreignObject></g><g class="label" style="" transform="translate(0,12)"><foreignObject width="112.640625" height="24"><div xmlns="http://www.w3.org/1999/xhtml" style="display: table-cell; white-space: nowrap; line-height: 1.5; max-width: 168px; text-align: center;"><span class="nodeLabel markdown-node-label" style=""><p>-name : string</p></span></div></foreignObject></g></g><g class="methods-group text" transform="translate(-66.0078125, 72)"/><g class="divider" style=""><path d="M-78.0078125 -24 C-21.215718534104568 -24, 35.576375431790865 -24, 78.0078125 -24 M-78.0078125 -24 C-20.49953481630248 -24, 37.00874286739504 -24, 78.0078125 -24" stroke="#9370DB" stroke-width="1.3" fill="none" stroke-dasharray="0 0" style=""/></g><g class="divider" style=""><path d="M-78.0078125 48 C-15.97235839973765 48, 46.0630957005247 48, 78.0078125 48 M-78.0078125 48 C-20.193916871951004 48, 37.61997875609799 48, 78.0078125 48" stroke="#9370DB" stroke-width="1.3" fill="none" stroke-dasharray="0 0" style=""/></g></g></g></g></g></svg>