<svg id="my-svg" width="100%" xmlns="http://www.w3.org/2000/svg" xmlns:xlink="http://www.w3.org/1999/xlink" class="erDiagram" style="max-width: 577.547px; background-color: white;" viewBox="0 0 577.546875 688.25" role="graphics-document document" aria-roledescription="er"><style>#my-svg{font-family:"trebuchet ms",verdana,arial,sans-serif;font-size:16px;fill:#333;}@keyframes edge-animation-frame{from{stroke-dashoffset:0;}}@keyframes dash{to{stroke-dashoffset:0;}}#my-svg .edge-animation-slow{stroke-dasharray:9,5!important;stroke-dashoffset:900;animation:dash 50s linear infinite;stroke-linecap:round;}#my-svg .edge-animation-fast{stroke-dasharray:9,5!important;stroke-dashoffset:900;animation:dash 20s linear infinite;stroke-linecap:round;}#my-svg .error-icon{fill:#552222;}#my-svg .error-text{fill:#552222;stroke:#552222;}#my-svg .edge-thickness-normal{stroke-width:1px;}#my-svg .edge-thickness-thick{stroke-width:3.5px;}#my-svg .edge-pattern-solid{stroke-dasharray:0;}#my-svg .edge-thickness-invisible{stroke-width:0;fill:none;}#my-svg .edge-pattern-dashed{stroke-dasharray:3;}#my-svg .edge-pattern-dotted{stroke-dasharray:2;}#my-svg .marker{fill:#333333;stroke:#333333;}#my-svg .marker.cross{stroke:#333333;}#my-svg svg{font-family:"trebuchet ms",verdana,arial,sans-serif;font-size:16px;}#my-svg p{margin:0;}#my-svg .entityBox{fill:#ECECFF;stroke:#9370DB;}#my-svg .relationshipLabelBox{fill:hsl(80, 100%, 96.2745098039%);opacity:0.7;background-color:hsl(80, 100%, 96.2745098039%);}#my-svg .relationshipLabelBox rect{opacity:0.5;}#my-svg .labelBkg{background-color:rgba(248.6666666666, 255, 235.9999999999, 0.5);}#my-svg .edgeLabel .label{fill:#9370DB;font-size:14px;}#my-svg .label{font-family:"trebuchet ms",verdana,arial,sans-serif;color:#333;}#my-svg .edge-pattern-dashed{stroke-dasharray:8,8;}#my-svg .node rect,#my-svg .node circle,#my-svg .node ellipse,#my-svg .node polygon{fill:#ECECFF;stroke:#9370DB;stroke-width:1px;}#my-svg .relationshipLine{stroke:#333333;stroke-width:1;fill:none;}#my-svg .marker{fill:none!important;stroke:#333333!important;stroke-width:1;}#my-svg .edgeLabel{background-color:rgba(232,232,232, 0.8);}#my-svg .edgeLabel .label rect{fill:rgba(232,232,232, 0.8);}#my-svg .edgeLabel .label text{fill:#333;}#my-svg :root{--mermaid-font-family:"trebuchet ms",verdana,arial,sans-serif;}</style><g><defs><marker id="my-svg_er-onlyOneStart" class="marker onlyOne er" refX="0" refY="9" markerWidth="18" markerHeight="18" orient="auto"><path d="M9,0 L9,18 M15,0 L15,18"/></marker></defs><defs><marker id="my-svg_er-onlyOneEnd" class="marker onlyOne er" refX="18" refY="9" markerWidth="18" markerHeight="18" orient="auto"><path d="M3,0 L3,18 M9,0 L9,18"/></marker></defs><defs><marker id="my-svg_er-zeroOrOneStart" class="marker zeroOrOne er" refX="0" refY="9" markerWidth="30" markerHeight="18" orient="auto"><circle fill="white" cx="21" cy="9" r="6"/><path d="M9,0 L9,18"/></marker></defs><defs><marker id="my-svg_er-zeroOrOneEnd" class="marker zeroOrOne er" refX="30" refY="9" markerWidth="30" markerHeight="18" orient="auto"><circle fill="white" cx="9" cy="9" r="6"/><path d="M21,0 L21,18"/></marker></defs><defs><marker id="my-svg_er-oneOrMoreStart" class="marker oneOrMore er" refX="18" refY="18" markerWidth="45" markerHeight="36" orient="auto"><path d="M0,18 Q 18,0 36,18 Q 18,36 0,18 M42,9 L42,27"/></marker></defs><defs><marker id="my-svg_er-oneOrMoreEnd" class="marker oneOrMore er" refX="27" refY="18" markerWidth="45" markerHeight="36" orient="auto"><path d="M3,9 L3,27 M9,18 Q27,0 45,18 Q27,36 9,18"/></marker></defs><defs><marker id="my-svg_er-zeroOrMoreStart" class="marker zeroOrMore er" refX="18" refY="18" markerWidth="57" markerHeight="36" orient="auto"><circle fill="white" cx="48" cy="18" r="6"/><path d="M0,18 Q18,0 36,18 Q18,36 0,18"/></marker></defs><defs><marker id="my-svg_er-zeroOrMoreEnd" class="marker zeroOrMore er" refX="39" refY="18" markerWidth="57" markerHeight="36" orient="auto"><circle fill="white" cx="9" cy="18" r="6"/><path d="M21,18 Q39,0 57,18 Q39,36 21,18"/></marker></defs><g class="root"><g class="clusters"/><g class="edgePaths"><path d="M198.457,168.626L185.373,178.771C172.289,188.917,146.121,209.209,133.037,227.771C119.953,246.333,119.953,263.167,119.953,271.583L119.953,280" id="id_entity-CUSTOMER-0_entity-ORDER-1_0" class="edge-thickness-normal edge-pattern-solid relationshipLine" style="undefined;;;undefined" data-edge="true" data-et="edge" data-id="id_entity-CUSTOMER-0_entity-ORDER-1_0" data-points="W3sieCI6MTk4LjQ1NzAzMTI1LCJ5IjoxNjguNjI1NzcxMTc1MzA0NTh9LHsieCI6MTE5Ljk1MzEyNSwieSI6MjI5LjV9LHsieCI6MTE5Ljk1MzEyNSwieSI6MjgwfV0=" marker-start="url(#my-svg_er-onlyOneStart)" marker-end="url(#my-svg_er-zeroOrMoreEnd)"/><path d="M119.953,408.25L119.953,416.667C119.953,425.083,119.953,441.917,119.953,458.75C119.953,475.583,119.953,492.417,119.953,500.833L119.953,509.25" id="id_entity-ORDER-1_entity-LINE-ITEM-2_1" class="edge-thickness-normal edge-pattern-solid relationshipLine" style="undefined;;;undefined" data-edge="true" data-et="edge" data-id="id_entity-ORDER-1_entity-LINE-ITEM-2_1" data-points="W3sieCI6MTE5Ljk1MzEyNSwieSI6NDA4LjI1fSx7IngiOjExOS45NTMxMjUsInkiOjQ1OC43NX0seyJ4IjoxMTkuOTUzMTI1LCJ5Ijo1MDkuMjV9XQ==" marker-start="url(#my-svg_er-onlyOneStart)" marker-end="url(#my-svg_er-oneOrMoreEnd)"/><path d="M392.223,168.626L405.307,178.771C418.391,188.917,444.559,209.209,457.643,231.458C470.727,253.708,470.727,277.917,470.727,290.021L470.727,302.125" id="id_entity-CUSTOMER-0_entity-DELIVERY-ADDRESS-3_2" class="edge-thickness-normal edge-pattern-dashed relationshipLine" style="undefined;;;undefined" data-edge="true" data-et="edge" data-id="id_entity-CUSTOMER-0_entity-DELIVERY-ADDRESS-3_2" data-points="W3sieCI6MzkyLjIyMjY1NjI1LCJ5IjoxNjguNjI1NzcxMTc1MzA0NTh9LHsieCI6NDcwLjcyNjU2MjUsInkiOjIyOS41fSx7IngiOjQ3MC43MjY1NjI1LCJ5IjozMDIuMTI1fV0=" marker-start="url(#my-svg_er-oneOrMoreStart)" marker-end="url(#my-svg_er-oneOrMoreEnd)"/></g><g class="edgeLabels"><g class="edgeLabel" transform="translate(119.953125, 229.5)"><g class="label" data-id="id_entity-CUSTOMER-0_entity-ORDER-1_0" transform="translate(-22.484375, -10.5)"><foreignObject width="44.96875" height="21"><div xmlns="http://www.w3.org/1999/xhtml" class="labelBkg" style="display: table-cell; white-space: nowrap; line-height: 1.5; max-width: 200px; text-align: center;"><span class="edgeLabel"><p>places</p></span></div></foreignObject></g></g><g class="edgeLabel" transform="translate(119.953125, 458.75)"><g class="label" data-id="id_entity-ORDER-1_entity-LINE-ITEM-2_1" transform="translate(-29.6328125, -10.5)"><foreignObject width="59.265625" height="21"><div xmlns="http://www.w3.org/1999/xhtml" class="labelBkg" style="display: table-cell; white-space: nowrap; line-height: 1.5; max-width: 200px; text-align: center;"><span class="edgeLabel"><p>contains</p></span></div></foreignObject></g></g><g class="edgeLabel" transform="translate(470.7265625, 229.5)"><g class="label" data-id="id_entity-CUSTOMER-0_entity-DELIVERY-ADDRESS-3_2" transform="translate(-16.0390625, -10.5)"><foreignObject width="32.078125" height="21"><div xmlns="http://www.w3.org/1999/xhtml" class="labelBkg" style="display: table-cell; white-space: nowrap; line-height: 1.5; max-width: 200px; text-align: center;"><span class="edgeLabel"><p>uses</p></span></div></foreignObject></g></g></g><g class="nodes"><g class="node default" id="entity-CUSTOMER-0" transform="translate(295.33984375, 93.5)"><g style=""><path d="M-96.8828125 -85.5 L96.8828125 -85.5 L96.8828125 85.5 L-96.8828125 85.5" stroke="none" stroke-width="0" fill="#ECECFF"/><path d="M-96.8828125 -85.5 C-36.862420474525756 -85.5, 23.15797155094849 -85.5, 96.8828125 -85.5 M-96.8828125 -85.5 C-34.49021273433969 -85.5, 27.902387031320615 -85.5, 96.8828125 -85.5 M96.8828125 -85.5 C96.8828125 -23.593501133726164, 96.8828125 38.31299773254767, 96.8828125 85.5 M96.8828125 -85.5 C96.8828125 -17.481402116539243, 96.8828125 50.53719576692151, 96.8828125 85.5 M96.8828125 85.5 C22.38236403559263 85.5, -52.11808442881474 85.5, -96.8828125 85.5 M96.8828125 85.5 C22.30052250628637 85.5, -52.28176748742726 85.5, -96.8828125 85.5 M-96.8828125 85.5 C-96.8828125 17.37582620046672, -96.8828125 -50.74834759906656, -96.8828125 -85.5 M-96.8828125 85.5 C-96.8828125 34.340083595170306, -96.8828125 -16.81983280965939, -96.8828125 -85.5" stroke="#9370DB" stroke-width="1.3" fill="none" stroke-dasharray="0 0"/></g><g style="" class="row-rect-odd"><path d="M-96.8828125 -42.75 L96.8828125 -42.75 L96.8828125 0 L-96.8828125 0" stroke="none" stroke-width="0" fill="hsl(240, 100%, 100%)"/><path d="M-96.8828125 -42.75 C-32.182752223012955 -42.75, 32.51730805397409 -42.75, 96.8828125 -42.75 M-96.8828125 -42.75 C-44.17353412040926 -42.75, 8.535744259181484 -42.75, 96.8828125 -42.75 M96.8828125 -42.75 C96.8828125 -32.7630945861631, 96.8828125 -22.7761891723262, 96.8828125 0 M96.8828125 -42.75 C96.8828125 -32.84544736629987, 96.8828125 -22.94089473259974, 96.8828125 0 M96.8828125 0 C38.49238732333017 0, -19.89803785333966 0, -96.8828125 0 M96.8828125 0 C27.503996258235745 0, -41.87481998352851 0, -96.8828125 0 M-96.8828125 0 C-96.8828125 -9.004345610557081, -96.8828125 -18.008691221114162, -96.8828125 -42.75 M-96.8828125 0 C-96.8828125 -9.476575864114839, -96.8828125 -18.953151728229678, -96.8828125 -42.75" stroke="#9370DB" stroke-width="1.3" fill="none" stroke-dasharray="0 0"/></g><g style="" class="row-rect-even"><path d="M-96.8828125 0 L96.8828125 0 L96.8828125 42.75 L-96.8828125 42.75" stroke="none" stroke-width="0" fill="hsl(240, 100%, 97.2745098039%)"/><path d="M-96.8828125 0 C-30.434210179315855 0, 36.01439214136829 0, 96.8828125 0 M-96.8828125 0 C-33.63385269113319 0, 29.615107117733615 0, 96.8828125 0 M96.8828125 0 C96.8828125 13.529109057941522, 96.8828125 27.058218115883044, 96.8828125 42.75 M96.8828125 0 C96.8828125 16.410995882060337, 96.8828125 32.821991764120675, 96.8828125 42.75 M96.8828125 42.75 C37.2206217361405 42.75, -22.441569027718998 42.75, -96.8828125 42.75 M96.8828125 42.75 C51.36358413300524 42.75, 5.84435576601048 42.75, -96.8828125 42.75 M-96.8828125 42.75 C-96.8828125 30.646791303105058, -96.8828125 18.543582606210116, -96.8828125 0 M-96.8828125 42.75 C-96.8828125 33.44342247381618, -96.8828125 24.13684494763235, -96.8828125 0" stroke="#9370DB" stroke-width="1.3" fill="none" stroke-dasharray="0 0"/></g><g style="" class="row-rect-odd"><path d="M-96.8828125 42.75 L96.8828125 42.75 L96.8828125 85.5 L-96.8828125 85.5" stroke="none" stroke-width="0" fill="hsl(240, 100%, 100%)"/><path d="M-96.8828125 42.75 C-55.03106150674333 42.75, -13.179310513486655 42.75, 96.8828125 42.75 M-96.8828125 42.75 C-51.63078183426757 42.75, -6.378751168535146 42.75, 96.8828125 42.75 M96.8828125 42.75 C96.8828125 57.86174749603049, 96.8828125 72.97349499206098, 96.8828125 85.5 M96.8828125 42.75 C96.8828125 53.10297776749971, 96.8828125 63.455955534999426, 96.8828125 85.5 M96.8828125 85.5 C31.579093267272512 85.5, -33.724625965454976 85.5, -96.8828125 85.5 M96.8828125 85.5 C20.683801694394035 85.5, -55.51520911121193 85.5, -96.8828125 85.5 M-96.8828125 85.5 C-96.8828125 74.20718035960918, -96.8828125 62.91436071921835, -96.8828125 42.75 M-96.8828125 85.5 C-96.8828125 74.03994980751298, -96.8828125 62.57989961502595, -96.8828125 42.75" stroke="#9370DB" stroke-width="1.3" fill="none" stroke-dasharray="0 0"/></g><g class="label name" transform="translate(-45.21875, -76.125)" style=""><foreignObject width="90.4375" height="24"><div xmlns="http://www.w3.org/1999/xhtml" style="display: table-cell; white-space: nowrap; line-height: 1.5; max-width: 190px; text-align: start;"><span class="nodeLabel"><p>CUSTOMER</p></span></div></foreignObject></g><g class="label attribute-type" transform="translate(-84.3828125, -33.375)" style=""><foreignObject width="45.9375" height="24"><div xmlns="http://www.w3.org/1999/xhtml" style="display: table-cell; white-space: nowrap; line-height: 1.5; max-width: 146px; text-align: start;"><span class="nodeLabel"><p>string</p></span></div></foreignObject></g><g class="label attribute-name" transform="translate(-13.4453125, -33.375)" style=""><foreignObject width="45.375" height="24"><div xmlns="http://www.w3.org/1999/xhtml" style="display: table-cell; white-space: nowrap; line-height: 1.5; max-width: 145px; text-align: start;"><span class="nodeLabel"><p>name</p></span></div></foreignObject></g><g class="label attribute-keys" transform="translate(109.3828125, -33.375)" style=""><foreignObject width="0" height="0"><div xmlns="http://www.w3.org/1999/xhtml" style="display: table-cell; white-space: nowrap; line-height: 1.5; max-width: 100px; text-align: start;"><span class="nodeLabel"></span></div></foreignObject></g><g class="label attribute-comment" transform="translate(109.3828125, -33.375)" style=""><foreignObject width="0" height="0"><div xmlns="http://www.w3.org/1999/xhtml" style="display: table-cell; white-space: nowrap; line-height: 1.5; max-width: 100px; text-align: start;"><span class="nodeLabel"></span></div></foreignObject></g><g class="label attribute-type" transform="translate(-84.3828125, 9.375)" style=""><foreignObject width="45.9375" height="24"><div xmlns="http://www.w3.org/1999/xhtml" style="display: table-cell; white-space: nowrap; line-height: 1.5; max-width: 146px; text-align: start;"><span class="nodeLabel"><p>string</p></span></div></foreignObject></g><g class="label attribute-name" transform="translate(-13.4453125, 9.375)" style=""><foreignObject width="97.828125" height="24"><div xmlns="http://www.w3.org/1999/xhtml" style="display: table-cell; white-space: nowrap; line-height: 1.5; max-width: 198px; text-align: start;"><span class="nodeLabel"><p>custNumber</p></span></div></foreignObject></g><g class="label attribute-keys" transform="translate(109.3828125, 9.375)" style=""><foreignObject width="0" height="0"><div xmlns="http://www.w3.org/1999/xhtml" style="display: table-cell; white-space: nowrap; line-height: 1.5; max-width: 100px; text-align: start;"><span class="nodeLabel"></span></div></foreignObject></g><g class="label attribute-comment" transform="translate(109.3828125, 9.375)" style=""><foreignObject width="0" height="0"><div xmlns="http://www.w3.org/1999/xhtml" style="display: table-cell; white-space: nowrap; line-height: 1.5; max-width: 100px; text-align: start;"><span class="nodeLabel"></span></div></foreignObject></g><g class="label attribute-type" transform="translate(-84.3828125, 52.125)" style=""><foreignObject width="45.9375" height="24"><div xmlns="http://www.w3.org/1999/xhtml" style="display: table-cell; white-space: nowrap; line-height: 1.5; max-width: 146px; text-align: start;"><span class="nodeLabel"><p>string</p></span></div></foreignObject></g><g class="label attribute-name" transform="translate(-13.4453125, 52.125)" style=""><foreignObject width="49.625" height="24"><div xmlns="http://www.w3.org/1999/xhtml" style="display: table-cell; white-space: nowrap; line-height: 1.5; max-width: 150px; text-align: start;"><span class="nodeLabel"><p>sector</p></span></div></foreignObject></g><g class="label attribute-keys" transform="translate(109.3828125, 52.125)" style=""><foreignObject width="0" height="0"><div xmlns="http://www.w3.org/1999/xhtml" style="display: table-cell; white-space: nowrap; line-height: 1.5; max-width: 100px; text-align: start;"><span class="nodeLabel"></span></div></foreignObject></g><g class="label attribute-comment" transform="translate(109.3828125, 52.125)" style=""><foreignObject width="0" height="0"><div xmlns="http://www.w3.org/1999/xhtml" style="display: table-cell; white-space: nowrap; line-height: 1.5; max-width: 100px; text-align: start;"><span class="nodeLabel"></span></div></foreignObject></g><g class="divider"><path d="M-96.8828125 -42.75 C-41.98134714147411 -42.75, 12.92011821705178 -42.75, 96.8828125 -42.75 M-96.8828125 -42.75 C-20.852051435747256 -42.75, 55.17870962850549 -42.75, 96.8828125 -42.75" stroke="#9370DB" stroke-width="1.3" fill="none" stroke-dasharray="0 0"/></g><g class="divider"><path d="M-25.9453125 -42.75 C-25.9453125 -8.899257702869832, -25.9453125 24.951484594260336, -25.9453125 85.5 M-25.9453125 -42.75 C-25.9453125 4.3537054262564325, -25.9453125 51.457410852512865, -25.9453125 85.5" stroke="#9370DB" stroke-width="1.3" fill="none" stroke-dasharray="0 0"/></g><g class="divider"><path d="M-96.8828125 -42.75 C-55.53611613085026 -42.75, -14.18941976170052 -42.75, 96.8828125 -42.75 M-96.8828125 -42.75 C-42.17417387427513 -42.75, 12.534464751449747 -42.75, 96.8828125 -42.75" stroke="#9370DB" stroke-width="1.3" fill="none" stroke-dasharray="0 0"/></g></g><g class="node default" id="entity-ORDER-1" transform="translate(119.953125, 344.125)"><g style=""><path d="M-111.953125 -64.125 L111.953125 -64.125 L111.953125 64.125 L-111.953125 64.125" stroke="none" stroke-width="0" fill="#ECECFF"/><path d="M-111.953125 -64.125 C-22.395721377230856 -64.125, 67.16168224553829 -64.125, 111.953125 -64.125 M-111.953125 -64.125 C-27.552333518371256 -64.125, 56.84845796325749 -64.125, 111.953125 -64.125 M111.953125 -64.125 C111.953125 -37.14935218320491, 111.953125 -10.173704366409815, 111.953125 64.125 M111.953125 -64.125 C111.953125 -29.86128255260116, 111.953125 4.402434894797679, 111.953125 64.125 M111.953125 64.125 C66.79695587997031 64.125, 21.64078675994064 64.125, -111.953125 64.125 M111.953125 64.125 C29.983408267890923 64.125, -51.986308464218155 64.125, -111.953125 64.125 M-111.953125 64.125 C-111.953125 20.671874139235562, -111.953125 -22.781251721528875, -111.953125 -64.125 M-111.953125 64.125 C-111.953125 19.21538798658343, -111.953125 -25.69422402683314, -111.953125 -64.125" stroke="#9370DB" stroke-width="1.3" fill="none" stroke-dasharray="0 0"/></g><g style="" class="row-rect-odd"><path d="M-111.953125 -21.375 L111.953125 -21.375 L111.953125 21.375 L-111.953125 21.375" stroke="none" stroke-width="0" fill="hsl(240, 100%, 100%)"/><path d="M-111.953125 -21.375 C-48.94660380735577 -21.375, 14.059917385288458 -21.375, 111.953125 -21.375 M-111.953125 -21.375 C-32.85244505003716 -21.375, 46.24823489992568 -21.375, 111.953125 -21.375 M111.953125 -21.375 C111.953125 -5.1997853744277265, 111.953125 10.975429251144547, 111.953125 21.375 M111.953125 -21.375 C111.953125 -5.944347796721608, 111.953125 9.486304406556783, 111.953125 21.375 M111.953125 21.375 C40.24882547685216 21.375, -31.455474046295677 21.375, -111.953125 21.375 M111.953125 21.375 C51.0634388748666 21.375, -9.826247250266803 21.375, -111.953125 21.375 M-111.953125 21.375 C-111.953125 7.769950199839871, -111.953125 -5.835099600320259, -111.953125 -21.375 M-111.953125 21.375 C-111.953125 9.265607822973095, -111.953125 -2.8437843540538097, -111.953125 -21.375" stroke="#9370DB" stroke-width="1.3" fill="none" stroke-dasharray="0 0"/></g><g style="" class="row-rect-even"><path d="M-111.953125 21.375 L111.953125 21.375 L111.953125 64.125 L-111.953125 64.125" stroke="none" stroke-width="0" fill="hsl(240, 100%, 97.2745098039%)"/><path d="M-111.953125 21.375 C-39.75781209363916 21.375, 32.43750081272168 21.375, 111.953125 21.375 M-111.953125 21.375 C-51.45115990502885 21.375, 9.050805189942295 21.375, 111.953125 21.375 M111.953125 21.375 C111.953125 35.24251898862187, 111.953125 49.11003797724373, 111.953125 64.125 M111.953125 21.375 C111.953125 32.85713889171359, 111.953125 44.33927778342718, 111.953125 64.125 M111.953125 64.125 C29.175106110439373 64.125, -53.602912779121255 64.125, -111.953125 64.125 M111.953125 64.125 C29.284682531569416 64.125, -53.38375993686117 64.125, -111.953125 64.125 M-111.953125 64.125 C-111.953125 47.71713159913698, -111.953125 31.309263198273953, -111.953125 21.375 M-111.953125 64.125 C-111.953125 49.76748584661944, -111.953125 35.409971693238866, -111.953125 21.375" stroke="#9370DB" stroke-width="1.3" fill="none" stroke-dasharray="0 0"/></g><g class="label name" transform="translate(-28.6328125, -54.75)" style=""><foreignObject width="57.265625" height="24"><div xmlns="http://www.w3.org/1999/xhtml" style="display: table-cell; white-space: nowrap; line-height: 1.5; max-width: 157px; text-align: start;"><span class="nodeLabel"><p>ORDER</p></span></div></foreignObject></g><g class="label attribute-type" transform="translate(-99.453125, -12)" style=""><foreignObject width="20.859375" height="24"><div xmlns="http://www.w3.org/1999/xhtml" style="display: table-cell; white-space: nowrap; line-height: 1.5; max-width: 121px; text-align: start;"><span class="nodeLabel"><p>int</p></span></div></foreignObject></g><g class="label attribute-name" transform="translate(-28.515625, -12)" style=""><foreignObject width="106.9375" height="24"><div xmlns="http://www.w3.org/1999/xhtml" style="display: table-cell; white-space: nowrap; line-height: 1.5; max-width: 207px; text-align: start;"><span class="nodeLabel"><p>orderNumber</p></span></div></foreignObject></g><g class="label attribute-keys" transform="translate(124.453125, -12)" style=""><foreignObject width="0" height="0"><div xmlns="http://www.w3.org/1999/xhtml" style="display: table-cell; white-space: nowrap; line-height: 1.5; max-width: 100px; text-align: start;"><span class="nodeLabel"></span></div></foreignObject></g><g class="label attribute-comment" transform="translate(124.453125, -12)" style=""><foreignObject width="0" height="0"><div xmlns="http://www.w3.org/1999/xhtml" style="display: table-cell; white-space: nowrap; line-height: 1.5; max-width: 100px; text-align: start;"><span class="nodeLabel"></span></div></foreignObject></g><g class="label attribute-type" transform="translate(-99.453125, 30.75)" style=""><foreignObject width="45.9375" height="24"><div xmlns="http://www.w3.org/1999/xhtml" style="display: table-cell; white-space: nowrap; line-height: 1.5; max-width: 146px; text-align: start;"><span class="nodeLabel"><p>string</p></span></div></foreignObject></g><g class="label attribute-name" transform="translate(-28.515625, 30.75)" style=""><foreignObject width="127.96875" height="24"><div xmlns="http://www.w3.org/1999/xhtml" style="display: table-cell; white-space: nowrap; line-height: 1.5; max-width: 228px; text-align: start;"><span class="nodeLabel"><p>deliveryAddress</p></span></div></foreignObject></g><g class="label attribute-keys" transform="translate(124.453125, 30.75)" style=""><foreignObject width="0" height="0"><div xmlns="http://www.w3.org/1999/xhtml" style="display: table-cell; white-space: nowrap; line-height: 1.5; max-width: 100px; text-align: start;"><span class="nodeLabel"></span></div></foreignObject></g><g class="label attribute-comment" transform="translate(124.453125, 30.75)" style=""><foreignObject width="0" height="0"><div xmlns="http://www.w3.org/1999/xhtml" style="display: table-cell; white-space: nowrap; line-height: 1.5; max-width: 100px; text-align: start;"><span class="nodeLabel"></span></div></foreignObject></g><g class="divider"><path d="M-111.953125 -21.375 C-37.921029513686605 -21.375, 36.11106597262679 -21.375, 111.953125 -21.375 M-111.953125 -21.375 C-64.32641063094187 -21.375, -16.69969626188373 -21.375, 111.953125 -21.375" stroke="#9370DB" stroke-width="1.3" fill="none" stroke-dasharray="0 0"/></g><g class="divider"><path d="M-41.015625 -21.375 C-41.015625 -3.739611586721054, -41.015625 13.895776826557892, -41.015625 64.125 M-41.015625 -21.375 C-41.015625 7.41350690709838, -41.015625 36.20201381419676, -41.015625 64.125" stroke="#9370DB" stroke-width="1.3" fill="none" stroke-dasharray="0 0"/></g><g class="divider"><path d="M-111.953125 -21.375 C-32.28931467309283 -21.375, 47.374495653814336 -21.375, 111.953125 -21.375 M-111.953125 -21.375 C-43.49338179417013 -21.375, 24.966361411659733 -21.375, 111.953125 -21.375" stroke="#9370DB" stroke-width="1.3" fill="none" stroke-dasharray="0 0"/></g></g><g class="node default" id="entity-LINE-ITEM-2" transform="translate(119.953125, 594.75)"><g style=""><path d="M-99.21875 -85.5 L99.21875 -85.5 L99.21875 85.5 L-99.21875 85.5" stroke="none" stroke-width="0" fill="#ECECFF"/><path d="M-99.21875 -85.5 C-57.03016228213913 -85.5, -14.841574564278261 -85.5, 99.21875 -85.5 M-99.21875 -85.5 C-23.735665748292917 -85.5, 51.74741850341417 -85.5, 99.21875 -85.5 M99.21875 -85.5 C99.21875 -31.449043860750614, 99.21875 22.601912278498773, 99.21875 85.5 M99.21875 -85.5 C99.21875 -18.093242755370298, 99.21875 49.313514489259404, 99.21875 85.5 M99.21875 85.5 C20.789340757233163 85.5, -57.640068485533675 85.5, -99.21875 85.5 M99.21875 85.5 C31.6256247814688 85.5, -35.9675004370624 85.5, -99.21875 85.5 M-99.21875 85.5 C-99.21875 24.572890944603046, -99.21875 -36.35421811079391, -99.21875 -85.5 M-99.21875 85.5 C-99.21875 37.839431460081805, -99.21875 -9.82113707983639, -99.21875 -85.5" stroke="#9370DB" stroke-width="1.3" fill="none" stroke-dasharray="0 0"/></g><g style="" class="row-rect-odd"><path d="M-99.21875 -42.75 L99.21875 -42.75 L99.21875 0 L-99.21875 0" stroke="none" stroke-width="0" fill="hsl(240, 100%, 100%)"/><path d="M-99.21875 -42.75 C-35.3919856615758 -42.75, 28.434778676848396 -42.75, 99.21875 -42.75 M-99.21875 -42.75 C-46.2008694285497 -42.75, 6.817011142900597 -42.75, 99.21875 -42.75 M99.21875 -42.75 C99.21875 -27.712941996226263, 99.21875 -12.675883992452523, 99.21875 0 M99.21875 -42.75 C99.21875 -33.86438846726635, 99.21875 -24.9787769345327, 99.21875 0 M99.21875 0 C49.18530555999676 0, -0.8481388800064735 0, -99.21875 0 M99.21875 0 C59.484156761843 0, 19.749563523686007 0, -99.21875 0 M-99.21875 0 C-99.21875 -12.893374675698032, -99.21875 -25.786749351396065, -99.21875 -42.75 M-99.21875 0 C-99.21875 -9.53609636509689, -99.21875 -19.07219273019378, -99.21875 -42.75" stroke="#9370DB" stroke-width="1.3" fill="none" stroke-dasharray="0 0"/></g><g style="" class="row-rect-even"><path d="M-99.21875 0 L99.21875 0 L99.21875 42.75 L-99.21875 42.75" stroke="none" stroke-width="0" fill="hsl(240, 100%, 97.2745098039%)"/><path d="M-99.21875 0 C-30.092497530932917 0, 39.033754938134166 0, 99.21875 0 M-99.21875 0 C-36.4447173074061 0, 26.329315385187797 0, 99.21875 0 M99.21875 0 C99.21875 14.747303190415971, 99.21875 29.494606380831943, 99.21875 42.75 M99.21875 0 C99.21875 15.62485469400268, 99.21875 31.24970938800536, 99.21875 42.75 M99.21875 42.75 C53.11806870637159 42.75, 7.017387412743176 42.75, -99.21875 42.75 M99.21875 42.75 C51.699675886280076 42.75, 4.180601772560152 42.75, -99.21875 42.75 M-99.21875 42.75 C-99.21875 26.03339954144764, -99.21875 9.31679908289528, -99.21875 0 M-99.21875 42.75 C-99.21875 31.67415399701708, -99.21875 20.598307994034162, -99.21875 0" stroke="#9370DB" stroke-width="1.3" fill="none" stroke-dasharray="0 0"/></g><g style="" class="row-rect-odd"><path d="M-99.21875 42.75 L99.21875 42.75 L99.21875 85.5 L-99.21875 85.5" stroke="none" stroke-width="0" fill="hsl(240, 100%, 100%)"/><path d="M-99.21875 42.75 C-46.64111191058313 42.75, 5.936526178833745 42.75, 99.21875 42.75 M-99.21875 42.75 C-36.61890840545413 42.75, 25.980933189091743 42.75, 99.21875 42.75 M99.21875 42.75 C99.21875 56.2670615493113, 99.21875 69.7841230986226, 99.21875 85.5 M99.21875 42.75 C99.21875 59.33691701448333, 99.21875 75.92383402896667, 99.21875 85.5 M99.21875 85.5 C54.51790470462659 85.5, 9.817059409253176 85.5, -99.21875 85.5 M99.21875 85.5 C35.38299217528554 85.5, -28.452765649428926 85.5, -99.21875 85.5 M-99.21875 85.5 C-99.21875 76.89973828275885, -99.21875 68.2994765655177, -99.21875 42.75 M-99.21875 85.5 C-99.21875 70.46162835249366, -99.21875 55.42325670498732, -99.21875 42.75" stroke="#9370DB" stroke-width="1.3" fill="none" stroke-dasharray="0 0"/></g><g class="label name" transform="translate(-39.9453125, -76.125)" style=""><foreignObject width="79.890625" height="24"><div xmlns="http://www.w3.org/1999/xhtml" style="display: table-cell; white-space: nowrap; line-height: 1.5; max-width: 180px; text-align: start;"><span class="nodeLabel"><p>LINE-ITEM</p></span></div></foreignObject></g><g class="label attribute-type" transform="translate(-86.71875, -33.375)" style=""><foreignObject width="45.9375" height="24"><div xmlns="http://www.w3.org/1999/xhtml" style="display: table-cell; white-space: nowrap; line-height: 1.5; max-width: 146px; text-align: start;"><span class="nodeLabel"><p>string</p></span></div></foreignObject></g><g class="label attribute-name" transform="translate(-15.78125, -33.375)" style=""><foreignObject width="102.5" height="24"><div xmlns="http://www.w3.org/1999/xhtml" style="display: table-cell; white-space: nowrap; line-height: 1.5; max-width: 203px; text-align: start;"><span class="nodeLabel"><p>productCode</p></span></div></foreignObject></g><g class="label attribute-keys" transform="translate(111.71875, -33.375)" style=""><foreignObject width="0" height="0"><div xmlns="http://www.w3.org/1999/xhtml" style="display: table-cell; white-space: nowrap; line-height: 1.5; max-width: 100px; text-align: start;"><span class="nodeLabel"></span></div></foreignObject></g><g class="label attribute-comment" transform="translate(111.71875, -33.375)" style=""><foreignObject width="0" height="0"><div xmlns="http://www.w3.org/1999/xhtml" style="display: table-cell; white-space: nowrap; line-height: 1.5; max-width: 100px; text-align: start;"><span class="nodeLabel"></span></div></foreignObject></g><g class="label attribute-type" transform="translate(-86.71875, 9.375)" style=""><foreignObject width="20.859375" height="24"><div xmlns="http://www.w3.org/1999/xhtml" style="display: table-cell; white-space: nowrap; line-height: 1.5; max-width: 121px; text-align: start;"><span class="nodeLabel"><p>int</p></span></div></foreignObject></g><g class="label attribute-name" transform="translate(-15.78125, 9.375)" style=""><foreignObject width="66.703125" height="24"><div xmlns="http://www.w3.org/1999/xhtml" style="display: table-cell; white-space: nowrap; line-height: 1.5; max-width: 167px; text-align: start;"><span class="nodeLabel"><p>quantity</p></span></div></foreignObject></g><g class="label attribute-keys" transform="translate(111.71875, 9.375)" style=""><foreignObject width="0" height="0"><div xmlns="http://www.w3.org/1999/xhtml" style="display: table-cell; white-space: nowrap; line-height: 1.5; max-width: 100px; text-align: start;"><span class="nodeLabel"></span></div></foreignObject></g><g class="label attribute-comment" transform="translate(111.71875, 9.375)" style=""><foreignObject width="0" height="0"><div xmlns="http://www.w3.org/1999/xhtml" style="display: table-cell; white-space: nowrap; line-height: 1.5; max-width: 100px; text-align: start;"><span class="nodeLabel"></span></div></foreignObject></g><g class="label attribute-type" transform="translate(-86.71875, 52.125)" style=""><foreignObject width="35.953125" height="24"><div xmlns="http://www.w3.org/1999/xhtml" style="display: table-cell; white-space: nowrap; line-height: 1.5; max-width: 136px; text-align: start;"><span class="nodeLabel"><p>float</p></span></div></foreignObject></g><g class="label attribute-name" transform="translate(-15.78125, 52.125)" style=""><foreignObject width="97.890625" height="24"><div xmlns="http://www.w3.org/1999/xhtml" style="display: table-cell; white-space: nowrap; line-height: 1.5; max-width: 198px; text-align: start;"><span class="nodeLabel"><p>pricePerUnit</p></span></div></foreignObject></g><g class="label attribute-keys" transform="translate(111.71875, 52.125)" style=""><foreignObject width="0" height="0"><div xmlns="http://www.w3.org/1999/xhtml" style="display: table-cell; white-space: nowrap; line-height: 1.5; max-width: 100px; text-align: start;"><span class="nodeLabel"></span></div></foreignObject></g><g class="label attribute-comment" transform="translate(111.71875, 52.125)" style=""><foreignObject width="0" height="0"><div xmlns="http://www.w3.org/1999/xhtml" style="display: table-cell; white-space: nowrap; line-height: 1.5; max-width: 100px; text-align: start;"><span class="nodeLabel"></span></div></foreignObject></g><g class="divider"><path d="M-99.21875 -42.75 C-38.99288824372464 -42.75, 21.232973512550714 -42.75, 99.21875 -42.75 M-99.21875 -42.75 C-54.66120513693744 -42.75, -10.10366027387488 -42.75, 99.21875 -42.75" stroke="#9370DB" stroke-width="1.3" fill="none" stroke-dasharray="0 0"/></g><g class="divider"><path d="M-28.28125 -42.75 C-28.28125 7.087740515355428, -28.28125 56.925481030710856, -28.28125 85.5 M-28.28125 -42.75 C-28.28125 -1.3901757408195934, -28.28125 39.96964851836081, -28.28125 85.5" stroke="#9370DB" stroke-width="1.3" fill="none" stroke-dasharray="0 0"/></g><g class="divider"><path d="M-99.21875 -42.75 C-52.807218971988114 -42.75, -6.3956879439762275 -42.75, 99.21875 -42.75 M-99.21875 -42.75 C-23.218165130620704 -42.75, 52.78241973875859 -42.75, 99.21875 -42.75" stroke="#9370DB" stroke-width="1.3" fill="none" stroke-dasharray="0 0"/></g></g><g class="node default" id="entity-DELIVERY-ADDRESS-3" transform="translate(470.7265625, 344.125)"><rect class="basic label-container" style="" x="-98.8203125" y="-42" width="197.640625" height="84"/><g class="label" style="" transform="translate(-78.8203125, -12)"><rect/><foreignObject width="157.640625" height="24"><div xmlns="http://www.w3.org/1999/xhtml" style="display: table-cell; white-space: nowrap; line-height: 1.5; max-width: 200px; text-align: center;"><span class="nodeLabel"><p>DELIVERY-ADDRESS</p></span></div></foreignObject></g></g></g></g></g></svg>