<svg id="my-svg" width="100%" xmlns="http://www.w3.org/2000/svg" xmlns:xlink="http://www.w3.org/1999/xlink" class="erDiagram" style="max-width: 577.547px; background-color: white;" viewBox="0 0 577.546875 688.25" role="graphics-document document" aria-roledescription="er"><style>#my-svg{font-family:"trebuchet ms",verdana,arial,sans-serif;font-size:16px;fill:#333;}@keyframes edge-animation-frame{from{stroke-dashoffset:0;}}@keyframes dash{to{stroke-dashoffset:0;}}#my-svg .edge-animation-slow{stroke-dasharray:9,5!important;stroke-dashoffset:900;animation:dash 50s linear infinite;stroke-linecap:round;}#my-svg .edge-animation-fast{stroke-dasharray:9,5!important;stroke-dashoffset:900;animation:dash 20s linear infinite;stroke-linecap:round;}#my-svg .error-icon{fill:#552222;}#my-svg .error-text{fill:#552222;stroke:#552222;}#my-svg .edge-thickness-normal{stroke-width:1px;}#my-svg .edge-thickness-thick{stroke-width:3.5px;}#my-svg .edge-pattern-solid{stroke-dasharray:0;}#my-svg .edge-thickness-invisible{stroke-width:0;fill:none;}#my-svg .edge-pattern-dashed{stroke-dasharray:3;}#my-svg .edge-pattern-dotted{stroke-dasharray:2;}#my-svg .marker{fill:#333333;stroke:#333333;}#my-svg .marker.cross{stroke:#333333;}#my-svg svg{font-family:"trebuchet ms",verdana,arial,sans-serif;font-size:16px;}#my-svg p{margin:0;}#my-svg .entityBox{fill:#ECECFF;stroke:#9370DB;}#my-svg .relationshipLabelBox{fill:hsl(80, 100%, 96.2745098039%);opacity:0.7;background-color:hsl(80, 100%, 96.2745098039%);}#my-svg .relationshipLabelBox rect{opacity:0.5;}#my-svg .labelBkg{background-color:rgba(248.6666666666, 255, 235.9999999999, 0.5);}#my-svg .edgeLabel .label{fill:#9370DB;font-size:14px;}#my-svg .label{font-family:"trebuchet ms",verdana,arial,sans-serif;color:#333;}#my-svg .edge-pattern-dashed{stroke-dasharray:8,8;}#my-svg .node rect,#my-svg .node circle,#my-svg .node ellipse,#my-svg .node polygon{fill:#ECECFF;stroke:#9370DB;stroke-width:1px;}#my-svg .relationshipLine{stroke:#333333;stroke-width:1;fill:none;}#my-svg .marker{fill:none!important;stroke:#333333!important;stroke-width:1;}#my-svg .edgeLabel{background-color:rgba(232,232,232, 0.8);}#my-svg .edgeLabel .label rect{fill:rgba(232,232,232, 0.8);}#my-svg .edgeLabel .label text{fill:#333;}#my-svg :root{--mermaid-font-family:"trebuchet ms",verdana,arial,sans-serif;}</style><g><defs><marker id="my-svg_er-onlyOneStart" class="marker onlyOne er" refX="0" refY="9" markerWidth="18" markerHeight="18" orient="auto"><path d="M9,0 L9,18 M15,0 L15,18"/></marker></defs><defs><marker id="my-svg_er-onlyOneEnd" class="marker onlyOne er" refX="18" refY="9" markerWidth="18" markerHeight="18" orient="auto"><path d="M3,0 L3,18 M9,0 L9,18"/></marker></defs><defs><marker id="my-svg_er-zeroOrOneStart" class="marker zeroOrOne er" refX="0" refY="9" markerWidth="30" markerHeight="18" orient="auto"><circle fill="white" cx="21" cy="9" r="6"/><path d="M9,0 L9,18"/></marker></defs><defs><marker id="my-svg_er-zeroOrOneEnd" class="marker zeroOrOne er" refX="30" refY="9" markerWidth="30" markerHeight="18" orient="auto"><circle fill="white" cx="9" cy="9" r="6"/><path d="M21,0 L21,18"/></marker></defs><defs><marker id="my-svg_er-oneOrMoreStart" class="marker oneOrMore er" refX="18" refY="18" markerWidth="45" markerHeight="36" orient="auto"><path d="M0,18 Q 18,0 36,18 Q 18,36 0,18 M42,9 L42,27"/></marker></defs><defs><marker id="my-svg_er-oneOrMoreEnd" class="marker oneOrMore er" refX="27" refY="18" markerWidth="45" markerHeight="36" orient="auto"><path d="M3,9 L3,27 M9,18 Q27,0 45,18 Q27,36 9,18"/></marker></defs><defs><marker id="my-svg_er-zeroOrMoreStart" class="marker zeroOrMore er" refX="18" refY="18" markerWidth="57" markerHeight="36" orient="auto"><circle fill="white" cx="48" cy="18" r="6"/><path d="M0,18 Q18,0 36,18 Q18,36 0,18"/></marker></defs><defs><marker id="my-svg_er-zeroOrMoreEnd" class="marker zeroOrMore er" refX="39" refY="18" markerWidth="57" markerHeight="36" orient="auto"><circle fill="white" cx="9" cy="18" r="6"/><path d="M21,18 Q39,0 57,18 Q39,36 21,18"/></marker></defs><g class="root"><g class="clusters"/><g class="edgePaths"><path d="M198.457,168.626L185.373,178.771C172.289,188.917,146.121,209.209,133.037,227.771C119.953,246.333,119.953,263.167,119.953,271.583L119.953,280" id="id_entity-CUSTOMER-0_entity-ORDER-1_0" class="edge-thickness-normal edge-pattern-solid relationshipLine" style="undefined;;;undefined" data-edge="true" data-et="edge" data-id="id_entity-CUSTOMER-0_entity-ORDER-1_0" data-points="W3sieCI6MTk4LjQ1NzAzMTI1LCJ5IjoxNjguNjI1NzcxMTc1MzA0NTh9LHsieCI6MTE5Ljk1MzEyNSwieSI6MjI5LjV9LHsieCI6MTE5Ljk1MzEyNSwieSI6MjgwfV0=" marker-start="url(#my-svg_er-onlyOneStart)" marker-end="url(#my-svg_er-zeroOrMoreEnd)"/><path d="M119.953,408.25L119.953,416.667C119.953,425.083,119.953,441.917,119.953,458.75C119.953,475.583,119.953,492.417,119.953,500.833L119.953,509.25" id="id_entity-ORDER-1_entity-LINE-ITEM-2_1" class="edge-thickness-normal edge-pattern-solid relationshipLine" style="undefined;;;undefined" data-edge="true" data-et="edge" data-id="id_entity-ORDER-1_entity-LINE-ITEM-2_1" data-points="W3sieCI6MTE5Ljk1MzEyNSwieSI6NDA4LjI1fSx7IngiOjExOS45NTMxMjUsInkiOjQ1OC43NX0seyJ4IjoxMTkuOTUzMTI1LCJ5Ijo1MDkuMjV9XQ==" marker-start="url(#my-svg_er-onlyOneStart)" marker-end="url(#my-svg_er-oneOrMoreEnd)"/><path d="M392.223,168.626L405.307,178.771C418.391,188.917,444.559,209.209,457.643,231.458C470.727,253.708,470.727,277.917,470.727,290.021L470.727,302.125" id="id_entity-CUSTOMER-0_entity-DELIVERY-ADDRESS-3_2" class="edge-thickness-normal edge-pattern-dashed relationshipLine" style="undefined;;;undefined" data-edge="true" data-et="edge" data-id="id_entity-CUSTOMER-0_entity-DELIVERY-ADDRESS-3_2" data-points="W3sieCI6MzkyLjIyMjY1NjI1LCJ5IjoxNjguNjI1NzcxMTc1MzA0NTh9LHsieCI6NDcwLjcyNjU2MjUsInkiOjIyOS41fSx7IngiOjQ3MC43MjY1NjI1LCJ5IjozMDIuMTI1fV0=" marker-start="url(#my-svg_er-oneOrMoreStart)" marker-end="url(#my-svg_er-oneOrMoreEnd)"/></g><g class="edgeLabels"><g class="edgeLabel" transform="translate(119.953125, 229.5)"><g class="label" data-id="id_entity-CUSTOMER-0_entity-ORDER-1_0" transform="translate(-22.484375, -10.5)"><foreignObject width="44.96875" height="21"><div xmlns="http://www.w3.org/1999/xhtml" class="labelBkg" style="display: table-cell; white-space: nowrap; line-height: 1.5; max-width: 200px; text-align: center;"><span class="edgeLabel"><p>places</p></span></div></foreignObject></g></g><g class="edgeLabel" transform="translate(119.953125, 458.75)"><g class="label" data-id="id_entity-ORDER-1_entity-LINE-ITEM-2_1" transform="translate(-29.6328125, -10.5)"><foreignObject width="59.265625" height="21"><div xmlns="http://www.w3.org/1999/xhtml" class="labelBkg" style="display: table-cell; white-space: nowrap; line-height: 1.5; max-width: 200px; text-align: center;"><span class="edgeLabel"><p>contains</p></span></div></foreignObject></g></g><g class="edgeLabel" transform="translate(470.7265625, 229.5)"><g class="label" data-id="id_entity-CUSTOMER-0_entity-DELIVERY-ADDRESS-3_2" transform="translate(-16.0390625, -10.5)"><foreignObject width="32.078125" height="21"><div xmlns="http://www.w3.org/1999/xhtml" class="labelBkg" style="display: table-cell; white-space: nowrap; line-height: 1.5; max-width: 200px; text-align: center;"><span class="edgeLabel"><p>uses</p></span></div></foreignObject></g></g></g><g class="nodes"><g class="node default" id="entity-CUSTOMER-0" transform="translate(295.33984375, 93.5)"><g style=""><path d="M-96.8828125 -85.5 L96.8828125 -85.5 L96.8828125 85.5 L-96.8828125 85.5" stroke="none" stroke-width="0" fill="#ECECFF"/><path d="M-96.8828125 -85.5 C-22.656007497729377 -85.5, 51.57079750454125 -85.5, 96.8828125 -85.5 M-96.8828125 -85.5 C-28.887794387039804 -85.5, 39.10722372592039 -85.5, 96.8828125 -85.5 M96.8828125 -85.5 C96.8828125 -48.7343956551612, 96.8828125 -11.968791310322402, 96.8828125 85.5 M96.8828125 -85.5 C96.8828125 -43.342244969603215, 96.8828125 -1.1844899392064292, 96.8828125 85.5 M96.8828125 85.5 C22.164168143412496 85.5, -52.55447621317501 85.5, -96.8828125 85.5 M96.8828125 85.5 C33.90323349333214 85.5, -29.076345513335724 85.5, -96.8828125 85.5 M-96.8828125 85.5 C-96.8828125 32.76284202550078, -96.8828125 -19.974315948998438, -96.8828125 -85.5 M-96.8828125 85.5 C-96.8828125 28.46482071792193, -96.8828125 -28.570358564156138, -96.8828125 -85.5" stroke="#9370DB" stroke-width="1.3" fill="none" stroke-dasharray="0 0"/></g><g style="" class="row-rect-odd"><path d="M-96.8828125 -42.75 L96.8828125 -42.75 L96.8828125 0 L-96.8828125 0" stroke="none" stroke-width="0" fill="hsl(240, 100%, 100%)"/><path d="M-96.8828125 -42.75 C-24.797168043299592 -42.75, 47.288476413400815 -42.75, 96.8828125 -42.75 M-96.8828125 -42.75 C-34.94122508417401 -42.75, 27.000362331651985 -42.75, 96.8828125 -42.75 M96.8828125 -42.75 C96.8828125 -32.19371882360507, 96.8828125 -21.637437647210135, 96.8828125 0 M96.8828125 -42.75 C96.8828125 -33.78900450734572, 96.8828125 -24.82800901469145, 96.8828125 0 M96.8828125 0 C41.64778833152125 0, -13.587235836957504 0, -96.8828125 0 M96.8828125 0 C20.35672331711436 0, -56.16936586577128 0, -96.8828125 0 M-96.8828125 0 C-96.8828125 -11.621528503102535, -96.8828125 -23.24305700620507, -96.8828125 -42.75 M-96.8828125 0 C-96.8828125 -10.67989581926043, -96.8828125 -21.35979163852086, -96.8828125 -42.75" stroke="#9370DB" stroke-width="1.3" fill="none" stroke-dasharray="0 0"/></g><g style="" class="row-rect-even"><path d="M-96.8828125 0 L96.8828125 0 L96.8828125 42.75 L-96.8828125 42.75" stroke="none" stroke-width="0" fill="hsl(240, 100%, 97.2745098039%)"/><path d="M-96.8828125 0 C-36.48462182708194 0, 23.913568845836124 0, 96.8828125 0 M-96.8828125 0 C-26.620798133055672 0, 43.641216233888656 0, 96.8828125 0 M96.8828125 0 C96.8828125 9.238241187182759, 96.8828125 18.476482374365517, 96.8828125 42.75 M96.8828125 0 C96.8828125 11.969232988367303, 96.8828125 23.938465976734605, 96.8828125 42.75 M96.8828125 42.75 C22.46854095283068 42.75, -51.94573059433864 42.75, -96.8828125 42.75 M96.8828125 42.75 C49.47451443632466 42.75, 2.066216372649322 42.75, -96.8828125 42.75 M-96.8828125 42.75 C-96.8828125 27.207503689832162, -96.8828125 11.665007379664324, -96.8828125 0 M-96.8828125 42.75 C-96.8828125 29.194852895120594, -96.8828125 15.639705790241187, -96.8828125 0" stroke="#9370DB" stroke-width="1.3" fill="none" stroke-dasharray="0 0"/></g><g style="" class="row-rect-odd"><path d="M-96.8828125 42.75 L96.8828125 42.75 L96.8828125 85.5 L-96.8828125 85.5" stroke="none" stroke-width="0" fill="hsl(240, 100%, 100%)"/><path d="M-96.8828125 42.75 C-53.01172278877425 42.75, -9.1406330775485 42.75, 96.8828125 42.75 M-96.8828125 42.75 C-29.19314378934412 42.75, 38.49652492131176 42.75, 96.8828125 42.75 M96.8828125 42.75 C96.8828125 58.59862215000919, 96.8828125 74.44724430001838, 96.8828125 85.5 M96.8828125 42.75 C96.8828125 51.506299907434496, 96.8828125 60.262599814869, 96.8828125 85.5 M96.8828125 85.5 C20.633404414050176 85.5, -55.61600367189965 85.5, -96.8828125 85.5 M96.8828125 85.5 C22.173371191380937 85.5, -52.536070117238125 85.5, -96.8828125 85.5 M-96.8828125 85.5 C-96.8828125 74.4226948467525, -96.8828125 63.345389693505005, -96.8828125 42.75 M-96.8828125 85.5 C-96.8828125 70.82673744610426, -96.8828125 56.15347489220852, -96.8828125 42.75" stroke="#9370DB" stroke-width="1.3" fill="none" stroke-dasharray="0 0"/></g><g class="label name" transform="translate(-45.21875, -76.125)" style=""><foreignObject width="90.4375" height="24"><div xmlns="http://www.w3.org/1999/xhtml" style="display: table-cell; white-space: nowrap; line-height: 1.5; max-width: 190px; text-align: start;"><span class="nodeLabel"><p>CUSTOMER</p></span></div></foreignObject></g><g class="label attribute-type" transform="translate(-84.3828125, -33.375)" style=""><foreignObject width="45.9375" height="24"><div xmlns="http://www.w3.org/1999/xhtml" style="display: table-cell; white-space: nowrap; line-height: 1.5; max-width: 146px; text-align: start;"><span class="nodeLabel"><p>string</p></span></div></foreignObject></g><g class="label attribute-name" transform="translate(-13.4453125, -33.375)" style=""><foreignObject width="45.375" height="24"><div xmlns="http://www.w3.org/1999/xhtml" style="display: table-cell; white-space: nowrap; line-height: 1.5; max-width: 145px; text-align: start;"><span class="nodeLabel"><p>name</p></span></div></foreignObject></g><g class="label attribute-keys" transform="translate(109.3828125, -33.375)" style=""><foreignObject width="0" height="0"><div xmlns="http://www.w3.org/1999/xhtml" style="display: table-cell; white-space: nowrap; line-height: 1.5; max-width: 100px; text-align: start;"><span class="nodeLabel"></span></div></foreignObject></g><g class="label attribute-comment" transform="translate(109.3828125, -33.375)" style=""><foreignObject width="0" height="0"><div xmlns="http://www.w3.org/1999/xhtml" style="display: table-cell; white-space: nowrap; line-height: 1.5; max-width: 100px; text-align: start;"><span class="nodeLabel"></span></div></foreignObject></g><g class="label attribute-type" transform="translate(-84.3828125, 9.375)" style=""><foreignObject width="45.9375" height="24"><div xmlns="http://www.w3.org/1999/xhtml" style="display: table-cell; white-space: nowrap; line-height: 1.5; max-width: 146px; text-align: start;"><span class="nodeLabel"><p>string</p></span></div></foreignObject></g><g class="label attribute-name" transform="translate(-13.4453125, 9.375)" style=""><foreignObject width="97.828125" height="24"><div xmlns="http://www.w3.org/1999/xhtml" style="display: table-cell; white-space: nowrap; line-height: 1.5; max-width: 198px; text-align: start;"><span class="nodeLabel"><p>custNumber</p></span></div></foreignObject></g><g class="label attribute-keys" transform="translate(109.3828125, 9.375)" style=""><foreignObject width="0" height="0"><div xmlns="http://www.w3.org/1999/xhtml" style="display: table-cell; white-space: nowrap; line-height: 1.5; max-width: 100px; text-align: start;"><span class="nodeLabel"></span></div></foreignObject></g><g class="label attribute-comment" transform="translate(109.3828125, 9.375)" style=""><foreignObject width="0" height="0"><div xmlns="http://www.w3.org/1999/xhtml" style="display: table-cell; white-space: nowrap; line-height: 1.5; max-width: 100px; text-align: start;"><span class="nodeLabel"></span></div></foreignObject></g><g class="label attribute-type" transform="translate(-84.3828125, 52.125)" style=""><foreignObject width="45.9375" height="24"><div xmlns="http://www.w3.org/1999/xhtml" style="display: table-cell; white-space: nowrap; line-height: 1.5; max-width: 146px; text-align: start;"><span class="nodeLabel"><p>string</p></span></div></foreignObject></g><g class="label attribute-name" transform="translate(-13.4453125, 52.125)" style=""><foreignObject width="49.625" height="24"><div xmlns="http://www.w3.org/1999/xhtml" style="display: table-cell; white-space: nowrap; line-height: 1.5; max-width: 150px; text-align: start;"><span class="nodeLabel"><p>sector</p></span></div></foreignObject></g><g class="label attribute-keys" transform="translate(109.3828125, 52.125)" style=""><foreignObject width="0" height="0"><div xmlns="http://www.w3.org/1999/xhtml" style="display: table-cell; white-space: nowrap; line-height: 1.5; max-width: 100px; text-align: start;"><span class="nodeLabel"></span></div></foreignObject></g><g class="label attribute-comment" transform="translate(109.3828125, 52.125)" style=""><foreignObject width="0" height="0"><div xmlns="http://www.w3.org/1999/xhtml" style="display: table-cell; white-space: nowrap; line-height: 1.5; max-width: 100px; text-align: start;"><span class="nodeLabel"></span></div></foreignObject></g><g class="divider"><path d="M-96.8828125 -42.75 C-54.344583277440044 -42.75, -11.806354054880089 -42.75, 96.8828125 -42.75 M-96.8828125 -42.75 C-37.01316961746502 -42.75, 22.856473265069965 -42.75, 96.8828125 -42.75" stroke="#9370DB" stroke-width="1.3" fill="none" stroke-dasharray="0 0"/></g><g class="divider"><path d="M-25.9453125 -42.75 C-25.9453125 0.1603718943478185, -25.9453125 43.07074378869564, -25.9453125 85.5 M-25.9453125 -42.75 C-25.9453125 4.125142251304652, -25.9453125 51.000284502609304, -25.9453125 85.5" stroke="#9370DB" stroke-width="1.3" fill="none" stroke-dasharray="0 0"/></g><g class="divider"><path d="M-96.8828125 -42.75 C-23.772334331780343 -42.75, 49.338143836439315 -42.75, 96.8828125 -42.75 M-96.8828125 -42.75 C-40.41656691340009 -42.75, 16.04967867319982 -42.75, 96.8828125 -42.75" stroke="#9370DB" stroke-width="1.3" fill="none" stroke-dasharray="0 0"/></g></g><g class="node default" id="entity-ORDER-1" transform="translate(119.953125, 344.125)"><g style=""><path d="M-111.953125 -64.125 L111.953125 -64.125 L111.953125 64.125 L-111.953125 64.125" stroke="none" stroke-width="0" fill="#ECECFF"/><path d="M-111.953125 -64.125 C-62.5502793946892 -64.125, -13.147433789378397 -64.125, 111.953125 -64.125 M-111.953125 -64.125 C-42.426322445154625 -64.125, 27.10048010969075 -64.125, 111.953125 -64.125 M111.953125 -64.125 C111.953125 -33.216207927619976, 111.953125 -2.3074158552399524, 111.953125 64.125 M111.953125 -64.125 C111.953125 -13.125071652361115, 111.953125 37.87485669527777, 111.953125 64.125 M111.953125 64.125 C47.285675979298034 64.125, -17.38177304140393 64.125, -111.953125 64.125 M111.953125 64.125 C66.63027598284047 64.125, 21.307426965680946 64.125, -111.953125 64.125 M-111.953125 64.125 C-111.953125 23.073724046224093, -111.953125 -17.977551907551813, -111.953125 -64.125 M-111.953125 64.125 C-111.953125 30.635258937556813, -111.953125 -2.854482124886374, -111.953125 -64.125" stroke="#9370DB" stroke-width="1.3" fill="none" stroke-dasharray="0 0"/></g><g style="" class="row-rect-odd"><path d="M-111.953125 -21.375 L111.953125 -21.375 L111.953125 21.375 L-111.953125 21.375" stroke="none" stroke-width="0" fill="hsl(240, 100%, 100%)"/><path d="M-111.953125 -21.375 C-31.867335275843715 -21.375, 48.21845444831257 -21.375, 111.953125 -21.375 M-111.953125 -21.375 C-27.996363400688054 -21.375, 55.96039819862389 -21.375, 111.953125 -21.375 M111.953125 -21.375 C111.953125 -5.993964675237111, 111.953125 9.387070649525779, 111.953125 21.375 M111.953125 -21.375 C111.953125 -8.01981341984623, 111.953125 5.33537316030754, 111.953125 21.375 M111.953125 21.375 C61.27644949689705 21.375, 10.599773993794102 21.375, -111.953125 21.375 M111.953125 21.375 C44.16622813150357 21.375, -23.620668736992855 21.375, -111.953125 21.375 M-111.953125 21.375 C-111.953125 5.608340785481561, -111.953125 -10.158318429036878, -111.953125 -21.375 M-111.953125 21.375 C-111.953125 7.323544689690342, -111.953125 -6.7279106206193156, -111.953125 -21.375" stroke="#9370DB" stroke-width="1.3" fill="none" stroke-dasharray="0 0"/></g><g style="" class="row-rect-even"><path d="M-111.953125 21.375 L111.953125 21.375 L111.953125 64.125 L-111.953125 64.125" stroke="none" stroke-width="0" fill="hsl(240, 100%, 97.2745098039%)"/><path d="M-111.953125 21.375 C-43.65264786605171 21.375, 24.647829267896583 21.375, 111.953125 21.375 M-111.953125 21.375 C-29.37954466180473 21.375, 53.19403567639054 21.375, 111.953125 21.375 M111.953125 21.375 C111.953125 37.6240674318293, 111.953125 53.873134863658606, 111.953125 64.125 M111.953125 21.375 C111.953125 34.332194989608325, 111.953125 47.289389979216644, 111.953125 64.125 M111.953125 64.125 C39.97300369198365 64.125, -32.0071176160327 64.125, -111.953125 64.125 M111.953125 64.125 C22.522963805777252 64.125, -66.9071973884455 64.125, -111.953125 64.125 M-111.953125 64.125 C-111.953125 52.47047066202981, -111.953125 40.815941324059615, -111.953125 21.375 M-111.953125 64.125 C-111.953125 49.14138163499344, -111.953125 34.15776326998687, -111.953125 21.375" stroke="#9370DB" stroke-width="1.3" fill="none" stroke-dasharray="0 0"/></g><g class="label name" transform="translate(-28.6328125, -54.75)" style=""><foreignObject width="57.265625" height="24"><div xmlns="http://www.w3.org/1999/xhtml" style="display: table-cell; white-space: nowrap; line-height: 1.5; max-width: 157px; text-align: start;"><span class="nodeLabel"><p>ORDER</p></span></div></foreignObject></g><g class="label attribute-type" transform="translate(-99.453125, -12)" style=""><foreignObject width="20.859375" height="24"><div xmlns="http://www.w3.org/1999/xhtml" style="display: table-cell; white-space: nowrap; line-height: 1.5; max-width: 121px; text-align: start;"><span class="nodeLabel"><p>int</p></span></div></foreignObject></g><g class="label attribute-name" transform="translate(-28.515625, -12)" style=""><foreignObject width="106.9375" height="24"><div xmlns="http://www.w3.org/1999/xhtml" style="display: table-cell; white-space: nowrap; line-height: 1.5; max-width: 207px; text-align: start;"><span class="nodeLabel"><p>orderNumber</p></span></div></foreignObject></g><g class="label attribute-keys" transform="translate(124.453125, -12)" style=""><foreignObject width="0" height="0"><div xmlns="http://www.w3.org/1999/xhtml" style="display: table-cell; white-space: nowrap; line-height: 1.5; max-width: 100px; text-align: start;"><span class="nodeLabel"></span></div></foreignObject></g><g class="label attribute-comment" transform="translate(124.453125, -12)" style=""><foreignObject width="0" height="0"><div xmlns="http://www.w3.org/1999/xhtml" style="display: table-cell; white-space: nowrap; line-height: 1.5; max-width: 100px; text-align: start;"><span class="nodeLabel"></span></div></foreignObject></g><g class="label attribute-type" transform="translate(-99.453125, 30.75)" style=""><foreignObject width="45.9375" height="24"><div xmlns="http://www.w3.org/1999/xhtml" style="display: table-cell; white-space: nowrap; line-height: 1.5; max-width: 146px; text-align: start;"><span class="nodeLabel"><p>string</p></span></div></foreignObject></g><g class="label attribute-name" transform="translate(-28.515625, 30.75)" style=""><foreignObject width="127.96875" height="24"><div xmlns="http://www.w3.org/1999/xhtml" style="display: table-cell; white-space: nowrap; line-height: 1.5; max-width: 228px; text-align: start;"><span class="nodeLabel"><p>deliveryAddress</p></span></div></foreignObject></g><g class="label attribute-keys" transform="translate(124.453125, 30.75)" style=""><foreignObject width="0" height="0"><div xmlns="http://www.w3.org/1999/xhtml" style="display: table-cell; white-space: nowrap; line-height: 1.5; max-width: 100px; text-align: start;"><span class="nodeLabel"></span></div></foreignObject></g><g class="label attribute-comment" transform="translate(124.453125, 30.75)" style=""><foreignObject width="0" height="0"><div xmlns="http://www.w3.org/1999/xhtml" style="display: table-cell; white-space: nowrap; line-height: 1.5; max-width: 100px; text-align: start;"><span class="nodeLabel"></span></div></foreignObject></g><g class="divider"><path d="M-111.953125 -21.375 C-60.845198592310894 -21.375, -9.737272184621787 -21.375, 111.953125 -21.375 M-111.953125 -21.375 C-40.666524830841865 -21.375, 30.62007533831627 -21.375, 111.953125 -21.375" stroke="#9370DB" stroke-width="1.3" fill="none" stroke-dasharray="0 0"/></g><g class="divider"><path d="M-41.015625 -21.375 C-41.015625 6.717669664956823, -41.015625 34.810339329913646, -41.015625 64.125 M-41.015625 -21.375 C-41.015625 -1.9800882490088583, -41.015625 17.414823501982283, -41.015625 64.125" stroke="#9370DB" stroke-width="1.3" fill="none" stroke-dasharray="0 0"/></g><g class="divider"><path d="M-111.953125 -21.375 C-66.6731022516492 -21.375, -21.393079503298395 -21.375, 111.953125 -21.375 M-111.953125 -21.375 C-23.66719567645967 -21.375, 64.61873364708066 -21.375, 111.953125 -21.375" stroke="#9370DB" stroke-width="1.3" fill="none" stroke-dasharray="0 0"/></g></g><g class="node default" id="entity-LINE-ITEM-2" transform="translate(119.953125, 594.75)"><g style=""><path d="M-99.21875 -85.5 L99.21875 -85.5 L99.21875 85.5 L-99.21875 85.5" stroke="none" stroke-width="0" fill="#ECECFF"/><path d="M-99.21875 -85.5 C-53.531968150820056 -85.5, -7.845186301640112 -85.5, 99.21875 -85.5 M-99.21875 -85.5 C-29.958221369170005 -85.5, 39.30230726165999 -85.5, 99.21875 -85.5 M99.21875 -85.5 C99.21875 -40.99031184501045, 99.21875 3.5193763099790942, 99.21875 85.5 M99.21875 -85.5 C99.21875 -48.761505381532054, 99.21875 -12.023010763064107, 99.21875 85.5 M99.21875 85.5 C57.79649879677068 85.5, 16.374247593541355 85.5, -99.21875 85.5 M99.21875 85.5 C41.4621639307751 85.5, -16.294422138449804 85.5, -99.21875 85.5 M-99.21875 85.5 C-99.21875 26.187415920165023, -99.21875 -33.125168159669954, -99.21875 -85.5 M-99.21875 85.5 C-99.21875 29.102570718228698, -99.21875 -27.294858563542604, -99.21875 -85.5" stroke="#9370DB" stroke-width="1.3" fill="none" stroke-dasharray="0 0"/></g><g style="" class="row-rect-odd"><path d="M-99.21875 -42.75 L99.21875 -42.75 L99.21875 0 L-99.21875 0" stroke="none" stroke-width="0" fill="hsl(240, 100%, 100%)"/><path d="M-99.21875 -42.75 C-46.16569579796588 -42.75, 6.887358404068237 -42.75, 99.21875 -42.75 M-99.21875 -42.75 C-54.15032869180431 -42.75, -9.081907383608623 -42.75, 99.21875 -42.75 M99.21875 -42.75 C99.21875 -30.360008561963994, 99.21875 -17.97001712392799, 99.21875 0 M99.21875 -42.75 C99.21875 -29.7944366286193, 99.21875 -16.838873257238603, 99.21875 0 M99.21875 0 C56.65463706572443 0, 14.09052413144886 0, -99.21875 0 M99.21875 0 C32.364312319697376 0, -34.49012536060525 0, -99.21875 0 M-99.21875 0 C-99.21875 -15.168113229424003, -99.21875 -30.336226458848007, -99.21875 -42.75 M-99.21875 0 C-99.21875 -16.231084465476563, -99.21875 -32.462168930953126, -99.21875 -42.75" stroke="#9370DB" stroke-width="1.3" fill="none" stroke-dasharray="0 0"/></g><g style="" class="row-rect-even"><path d="M-99.21875 0 L99.21875 0 L99.21875 42.75 L-99.21875 42.75" stroke="none" stroke-width="0" fill="hsl(240, 100%, 97.2745098039%)"/><path d="M-99.21875 0 C-26.748643145015436 0, 45.72146370996913 0, 99.21875 0 M-99.21875 0 C-46.753690131448174 0, 5.711369737103652 0, 99.21875 0 M99.21875 0 C99.21875 13.157051137105325, 99.21875 26.31410227421065, 99.21875 42.75 M99.21875 0 C99.21875 11.093753412488013, 99.21875 22.187506824976026, 99.21875 42.75 M99.21875 42.75 C51.169358040359285 42.75, 3.1199660807185694 42.75, -99.21875 42.75 M99.21875 42.75 C29.290617902208226 42.75, -40.63751419558355 42.75, -99.21875 42.75 M-99.21875 42.75 C-99.21875 32.29419431816277, -99.21875 21.83838863632555, -99.21875 0 M-99.21875 42.75 C-99.21875 34.06357891109684, -99.21875 25.377157822193684, -99.21875 0" stroke="#9370DB" stroke-width="1.3" fill="none" stroke-dasharray="0 0"/></g><g style="" class="row-rect-odd"><path d="M-99.21875 42.75 L99.21875 42.75 L99.21875 85.5 L-99.21875 85.5" stroke="none" stroke-width="0" fill="hsl(240, 100%, 100%)"/><path d="M-99.21875 42.75 C-50.98577719564444 42.75, -2.752804391288876 42.75, 99.21875 42.75 M-99.21875 42.75 C-46.06750514668695 42.75, 7.083739706626105 42.75, 99.21875 42.75 M99.21875 42.75 C99.21875 55.62396910869634, 99.21875 68.49793821739269, 99.21875 85.5 M99.21875 42.75 C99.21875 53.67823424639547, 99.21875 64.60646849279094, 99.21875 85.5 M99.21875 85.5 C22.47497214471811 85.5, -54.26880571056378 85.5, -99.21875 85.5 M99.21875 85.5 C56.79306048482335 85.5, 14.3673709696467 85.5, -99.21875 85.5 M-99.21875 85.5 C-99.21875 71.36080582324423, -99.21875 57.22161164648848, -99.21875 42.75 M-99.21875 85.5 C-99.21875 73.7495409257644, -99.21875 61.99908185152881, -99.21875 42.75" stroke="#9370DB" stroke-width="1.3" fill="none" stroke-dasharray="0 0"/></g><g class="label name" transform="translate(-39.9453125, -76.125)" style=""><foreignObject width="79.890625" height="24"><div xmlns="http://www.w3.org/1999/xhtml" style="display: table-cell; white-space: nowrap; line-height: 1.5; max-width: 180px; text-align: start;"><span class="nodeLabel"><p>LINE-ITEM</p></span></div></foreignObject></g><g class="label attribute-type" transform="translate(-86.71875, -33.375)" style=""><foreignObject width="45.9375" height="24"><div xmlns="http://www.w3.org/1999/xhtml" style="display: table-cell; white-space: nowrap; line-height: 1.5; max-width: 146px; text-align: start;"><span class="nodeLabel"><p>string</p></span></div></foreignObject></g><g class="label attribute-name" transform="translate(-15.78125, -33.375)" style=""><foreignObject width="102.5" height="24"><div xmlns="http://www.w3.org/1999/xhtml" style="display: table-cell; white-space: nowrap; line-height: 1.5; max-width: 203px; text-align: start;"><span class="nodeLabel"><p>productCode</p></span></div></foreignObject></g><g class="label attribute-keys" transform="translate(111.71875, -33.375)" style=""><foreignObject width="0" height="0"><div xmlns="http://www.w3.org/1999/xhtml" style="display: table-cell; white-space: nowrap; line-height: 1.5; max-width: 100px; text-align: start;"><span class="nodeLabel"></span></div></foreignObject></g><g class="label attribute-comment" transform="translate(111.71875, -33.375)" style=""><foreignObject width="0" height="0"><div xmlns="http://www.w3.org/1999/xhtml" style="display: table-cell; white-space: nowrap; line-height: 1.5; max-width: 100px; text-align: start;"><span class="nodeLabel"></span></div></foreignObject></g><g class="label attribute-type" transform="translate(-86.71875, 9.375)" style=""><foreignObject width="20.859375" height="24"><div xmlns="http://www.w3.org/1999/xhtml" style="display: table-cell; white-space: nowrap; line-height: 1.5; max-width: 121px; text-align: start;"><span class="nodeLabel"><p>int</p></span></div></foreignObject></g><g class="label attribute-name" transform="translate(-15.78125, 9.375)" style=""><foreignObject width="66.703125" height="24"><div xmlns="http://www.w3.org/1999/xhtml" style="display: table-cell; white-space: nowrap; line-height: 1.5; max-width: 167px; text-align: start;"><span class="nodeLabel"><p>quantity</p></span></div></foreignObject></g><g class="label attribute-keys" transform="translate(111.71875, 9.375)" style=""><foreignObject width="0" height="0"><div xmlns="http://www.w3.org/1999/xhtml" style="display: table-cell; white-space: nowrap; line-height: 1.5; max-width: 100px; text-align: start;"><span class="nodeLabel"></span></div></foreignObject></g><g class="label attribute-comment" transform="translate(111.71875, 9.375)" style=""><foreignObject width="0" height="0"><div xmlns="http://www.w3.org/1999/xhtml" style="display: table-cell; white-space: nowrap; line-height: 1.5; max-width: 100px; text-align: start;"><span class="nodeLabel"></span></div></foreignObject></g><g class="label attribute-type" transform="translate(-86.71875, 52.125)" style=""><foreignObject width="35.953125" height="24"><div xmlns="http://www.w3.org/1999/xhtml" style="display: table-cell; white-space: nowrap; line-height: 1.5; max-width: 136px; text-align: start;"><span class="nodeLabel"><p>float</p></span></div></foreignObject></g><g class="label attribute-name" transform="translate(-15.78125, 52.125)" style=""><foreignObject width="97.890625" height="24"><div xmlns="http://www.w3.org/1999/xhtml" style="display: table-cell; white-space: nowrap; line-height: 1.5; max-width: 198px; text-align: start;"><span class="nodeLabel"><p>pricePerUnit</p></span></div></foreignObject></g><g class="label attribute-keys" transform="translate(111.71875, 52.125)" style=""><foreignObject width="0" height="0"><div xmlns="http://www.w3.org/1999/xhtml" style="display: table-cell; white-space: nowrap; line-height: 1.5; max-width: 100px; text-align: start;"><span class="nodeLabel"></span></div></foreignObject></g><g class="label attribute-comment" transform="translate(111.71875, 52.125)" style=""><foreignObject width="0" height="0"><div xmlns="http://www.w3.org/1999/xhtml" style="display: table-cell; white-space: nowrap; line-height: 1.5; max-width: 100px; text-align: start;"><span class="nodeLabel"></span></div></foreignObject></g><g class="divider"><path d="M-99.21875 -42.75 C-42.920931384703174 -42.75, 13.376887230593653 -42.75, 99.21875 -42.75 M-99.21875 -42.75 C-30.77690178443514 -42.75, 37.66494643112972 -42.75, 99.21875 -42.75" stroke="#9370DB" stroke-width="1.3" fill="none" stroke-dasharray="0 0"/></g><g class="divider"><path d="M-28.28125 -42.75 C-28.28125 -10.574641223213234, -28.28125 21.60071755357353, -28.28125 85.5 M-28.28125 -42.75 C-28.28125 -5.925918128545959, -28.28125 30.898163742908082, -28.28125 85.5" stroke="#9370DB" stroke-width="1.3" fill="none" stroke-dasharray="0 0"/></g><g class="divider"><path d="M-99.21875 -42.75 C-37.52813948469842 -42.75, 24.162471030603157 -42.75, 99.21875 -42.75 M-99.21875 -42.75 C-25.51819950953555 -42.75, 48.1823509809289 -42.75, 99.21875 -42.75" stroke="#9370DB" stroke-width="1.3" fill="none" stroke-dasharray="0 0"/></g></g><g class="node default" id="entity-DELIVERY-ADDRESS-3" transform="translate(470.7265625, 344.125)"><rect class="basic label-container" style="" x="-98.8203125" y="-42" width="197.640625" height="84"/><g class="label" style="" transform="translate(-78.8203125, -12)"><rect/><foreignObject width="157.640625" height="24"><div xmlns="http://www.w3.org/1999/xhtml" style="display: table-cell; white-space: nowrap; line-height: 1.5; max-width: 200px; text-align: center;"><span class="nodeLabel"><p>DELIVERY-ADDRESS</p></span></div></foreignObject></g></g></g></g></g></svg>