<svg id="my-svg" width="100%" xmlns="http://www.w3.org/2000/svg" xmlns:xlink="http://www.w3.org/1999/xlink" class="erDiagram" style="max-width: 577.547px; background-color: white;" viewBox="0 0 577.546875 688.25" role="graphics-document document" aria-roledescription="er"><style>#my-svg{font-family:"trebuchet ms",verdana,arial,sans-serif;font-size:16px;fill:#333;}@keyframes edge-animation-frame{from{stroke-dashoffset:0;}}@keyframes dash{to{stroke-dashoffset:0;}}#my-svg .edge-animation-slow{stroke-dasharray:9,5!important;stroke-dashoffset:900;animation:dash 50s linear infinite;stroke-linecap:round;}#my-svg .edge-animation-fast{stroke-dasharray:9,5!important;stroke-dashoffset:900;animation:dash 20s linear infinite;stroke-linecap:round;}#my-svg .error-icon{fill:#552222;}#my-svg .error-text{fill:#552222;stroke:#552222;}#my-svg .edge-thickness-normal{stroke-width:1px;}#my-svg .edge-thickness-thick{stroke-width:3.5px;}#my-svg .edge-pattern-solid{stroke-dasharray:0;}#my-svg .edge-thickness-invisible{stroke-width:0;fill:none;}#my-svg .edge-pattern-dashed{stroke-dasharray:3;}#my-svg .edge-pattern-dotted{stroke-dasharray:2;}#my-svg .marker{fill:#333333;stroke:#333333;}#my-svg .marker.cross{stroke:#333333;}#my-svg svg{font-family:"trebuchet ms",verdana,arial,sans-serif;font-size:16px;}#my-svg p{margin:0;}#my-svg .entityBox{fill:#ECECFF;stroke:#9370DB;}#my-svg .relationshipLabelBox{fill:hsl(80, 100%, 96.2745098039%);opacity:0.7;background-color:hsl(80, 100%, 96.2745098039%);}#my-svg .relationshipLabelBox rect{opacity:0.5;}#my-svg .labelBkg{background-color:rgba(248.6666666666, 255, 235.9999999999, 0.5);}#my-svg .edgeLabel .label{fill:#9370DB;font-size:14px;}#my-svg .label{font-family:"trebuchet ms",verdana,arial,sans-serif;color:#333;}#my-svg .edge-pattern-dashed{stroke-dasharray:8,8;}#my-svg .node rect,#my-svg .node circle,#my-svg .node ellipse,#my-svg .node polygon{fill:#ECECFF;stroke:#9370DB;stroke-width:1px;}#my-svg .relationshipLine{stroke:#333333;stroke-width:1;fill:none;}#my-svg .marker{fill:none!important;stroke:#333333!important;stroke-width:1;}#my-svg .edgeLabel{background-color:rgba(232,232,232, 0.8);}#my-svg .edgeLabel .label rect{fill:rgba(232,232,232, 0.8);}#my-svg .edgeLabel .label text{fill:#333;}#my-svg :root{--mermaid-font-family:"trebuchet ms",verdana,arial,sans-serif;}</style><g><defs><marker id="my-svg_er-onlyOneStart" class="marker onlyOne er" refX="0" refY="9" markerWidth="18" markerHeight="18" orient="auto"><path d="M9,0 L9,18 M15,0 L15,18"/></marker></defs><defs><marker id="my-svg_er-onlyOneEnd" class="marker onlyOne er" refX="18" refY="9" markerWidth="18" markerHeight="18" orient="auto"><path d="M3,0 L3,18 M9,0 L9,18"/></marker></defs><defs><marker id="my-svg_er-zeroOrOneStart" class="marker zeroOrOne er" refX="0" refY="9" markerWidth="30" markerHeight="18" orient="auto"><circle fill="white" cx="21" cy="9" r="6"/><path d="M9,0 L9,18"/></marker></defs><defs><marker id="my-svg_er-zeroOrOneEnd" class="marker zeroOrOne er" refX="30" refY="9" markerWidth="30" markerHeight="18" orient="auto"><circle fill="white" cx="9" cy="9" r="6"/><path d="M21,0 L21,18"/></marker></defs><defs><marker id="my-svg_er-oneOrMoreStart" class="marker oneOrMore er" refX="18" refY="18" markerWidth="45" markerHeight="36" orient="auto"><path d="M0,18 Q 18,0 36,18 Q 18,36 0,18 M42,9 L42,27"/></marker></defs><defs><marker id="my-svg_er-oneOrMoreEnd" class="marker oneOrMore er" refX="27" refY="18" markerWidth="45" markerHeight="36" orient="auto"><path d="M3,9 L3,27 M9,18 Q27,0 45,18 Q27,36 9,18"/></marker></defs><defs><marker id="my-svg_er-zeroOrMoreStart" class="marker zeroOrMore er" refX="18" refY="18" markerWidth="57" markerHeight="36" orient="auto"><circle fill="white" cx="48" cy="18" r="6"/><path d="M0,18 Q18,0 36,18 Q18,36 0,18"/></marker></defs><defs><marker id="my-svg_er-zeroOrMoreEnd" class="marker zeroOrMore er" refX="39" refY="18" markerWidth="57" markerHeight="36" orient="auto"><circle fill="white" cx="9" cy="18" r="6"/><path d="M21,18 Q39,0 57,18 Q39,36 21,18"/></marker></defs><g class="root"><g class="clusters"/><g class="edgePaths"><path d="M198.457,168.626L185.373,178.771C172.289,188.917,146.121,209.209,133.037,227.771C119.953,246.333,119.953,263.167,119.953,271.583L119.953,280" id="id_entity-CUSTOMER-0_entity-ORDER-1_0" class="edge-thickness-normal edge-pattern-solid relationshipLine" style="undefined;;;undefined" data-edge="true" data-et="edge" data-id="id_entity-CUSTOMER-0_entity-ORDER-1_0" data-points="W3sieCI6MTk4LjQ1NzAzMTI1LCJ5IjoxNjguNjI1NzcxMTc1MzA0NTh9LHsieCI6MTE5Ljk1MzEyNSwieSI6MjI5LjV9LHsieCI6MTE5Ljk1MzEyNSwieSI6MjgwfV0=" marker-start="url(#my-svg_er-onlyOneStart)" marker-end="url(#my-svg_er-zeroOrMoreEnd)"/><path d="M119.953,408.25L119.953,416.667C119.953,425.083,119.953,441.917,119.953,458.75C119.953,475.583,119.953,492.417,119.953,500.833L119.953,509.25" id="id_entity-ORDER-1_entity-LINE-ITEM-2_1" class="edge-thickness-normal edge-pattern-solid relationshipLine" style="undefined;;;undefined" data-edge="true" data-et="edge" data-id="id_entity-ORDER-1_entity-LINE-ITEM-2_1" data-points="W3sieCI6MTE5Ljk1MzEyNSwieSI6NDA4LjI1fSx7IngiOjExOS45NTMxMjUsInkiOjQ1OC43NX0seyJ4IjoxMTkuOTUzMTI1LCJ5Ijo1MDkuMjV9XQ==" marker-start="url(#my-svg_er-onlyOneStart)" marker-end="url(#my-svg_er-oneOrMoreEnd)"/><path d="M392.223,168.626L405.307,178.771C418.391,188.917,444.559,209.209,457.643,231.458C470.727,253.708,470.727,277.917,470.727,290.021L470.727,302.125" id="id_entity-CUSTOMER-0_entity-DELIVERY-ADDRESS-3_2" class="edge-thickness-normal edge-pattern-dashed relationshipLine" style="undefined;;;undefined" data-edge="true" data-et="edge" data-id="id_entity-CUSTOMER-0_entity-DELIVERY-ADDRESS-3_2" data-points="W3sieCI6MzkyLjIyMjY1NjI1LCJ5IjoxNjguNjI1NzcxMTc1MzA0NTh9LHsieCI6NDcwLjcyNjU2MjUsInkiOjIyOS41fSx7IngiOjQ3MC43MjY1NjI1LCJ5IjozMDIuMTI1fV0=" marker-start="url(#my-svg_er-oneOrMoreStart)" marker-end="url(#my-svg_er-oneOrMoreEnd)"/></g><g class="edgeLabels"><g class="edgeLabel" transform="translate(119.953125, 229.5)"><g class="label" data-id="id_entity-CUSTOMER-0_entity-ORDER-1_0" transform="translate(-22.484375, -10.5)"><foreignObject width="44.96875" height="21"><div xmlns="http://www.w3.org/1999/xhtml" class="labelBkg" style="display: table-cell; white-space: nowrap; line-height: 1.5; max-width: 200px; text-align: center;"><span class="edgeLabel"><p>places</p></span></div></foreignObject></g></g><g class="edgeLabel" transform="translate(119.953125, 458.75)"><g class="label" data-id="id_entity-ORDER-1_entity-LINE-ITEM-2_1" transform="translate(-29.6328125, -10.5)"><foreignObject width="59.265625" height="21"><div xmlns="http://www.w3.org/1999/xhtml" class="labelBkg" style="display: table-cell; white-space: nowrap; line-height: 1.5; max-width: 200px; text-align: center;"><span class="edgeLabel"><p>contains</p></span></div></foreignObject></g></g><g class="edgeLabel" transform="translate(470.7265625, 229.5)"><g class="label" data-id="id_entity-CUSTOMER-0_entity-DELIVERY-ADDRESS-3_2" transform="translate(-16.0390625, -10.5)"><foreignObject width="32.078125" height="21"><div xmlns="http://www.w3.org/1999/xhtml" class="labelBkg" style="display: table-cell; white-space: nowrap; line-height: 1.5; max-width: 200px; text-align: center;"><span class="edgeLabel"><p>uses</p></span></div></foreignObject></g></g></g><g class="nodes"><g class="node default" id="entity-CUSTOMER-0" transform="translate(295.33984375, 93.5)"><g style=""><path d="M-96.8828125 -85.5 L96.8828125 -85.5 L96.8828125 85.5 L-96.8828125 85.5" stroke="none" stroke-width="0" fill="#ECECFF"/><path d="M-96.8828125 -85.5 C-54.31993382372491 -85.5, -11.757055147449819 -85.5, 96.8828125 -85.5 M-96.8828125 -85.5 C-26.45177477451601 -85.5, 43.97926295096798 -85.5, 96.8828125 -85.5 M96.8828125 -85.5 C96.8828125 -25.556848687186232, 96.8828125 34.386302625627536, 96.8828125 85.5 M96.8828125 -85.5 C96.8828125 -47.96666437282565, 96.8828125 -10.433328745651295, 96.8828125 85.5 M96.8828125 85.5 C56.72782923999831 85.5, 16.572845979996615 85.5, -96.8828125 85.5 M96.8828125 85.5 C34.00190885379628 85.5, -28.87899479240744 85.5, -96.8828125 85.5 M-96.8828125 85.5 C-96.8828125 47.14154828396779, -96.8828125 8.783096567935587, -96.8828125 -85.5 M-96.8828125 85.5 C-96.8828125 50.3326724272698, -96.8828125 15.165344854539597, -96.8828125 -85.5" stroke="#9370DB" stroke-width="1.3" fill="none" stroke-dasharray="0 0"/></g><g style="" class="row-rect-odd"><path d="M-96.8828125 -42.75 L96.8828125 -42.75 L96.8828125 0 L-96.8828125 0" stroke="none" stroke-width="0" fill="hsl(240, 100%, 100%)"/><path d="M-96.8828125 -42.75 C-47.11212968735846 -42.75, 2.6585531252830776 -42.75, 96.8828125 -42.75 M-96.8828125 -42.75 C-38.009303550275405 -42.75, 20.86420539944919 -42.75, 96.8828125 -42.75 M96.8828125 -42.75 C96.8828125 -31.476336406348224, 96.8828125 -20.202672812696445, 96.8828125 0 M96.8828125 -42.75 C96.8828125 -25.720748644590124, 96.8828125 -8.691497289180248, 96.8828125 0 M96.8828125 0 C22.241031112101865 0, -52.40075027579627 0, -96.8828125 0 M96.8828125 0 C27.662655901541555 0, -41.55750069691689 0, -96.8828125 0 M-96.8828125 0 C-96.8828125 -12.710002447846279, -96.8828125 -25.420004895692557, -96.8828125 -42.75 M-96.8828125 0 C-96.8828125 -16.648248633348874, -96.8828125 -33.29649726669775, -96.8828125 -42.75" stroke="#9370DB" stroke-width="1.3" fill="none" stroke-dasharray="0 0"/></g><g style="" class="row-rect-even"><path d="M-96.8828125 0 L96.8828125 0 L96.8828125 42.75 L-96.8828125 42.75" stroke="none" stroke-width="0" fill="hsl(240, 100%, 97.2745098039%)"/><path d="M-96.8828125 0 C-47.913393200766684 0, 1.0560260984666314 0, 96.8828125 0 M-96.8828125 0 C-55.716932242642 0, -14.551051985284005 0, 96.8828125 0 M96.8828125 0 C96.8828125 9.249840152754997, 96.8828125 18.499680305509994, 96.8828125 42.75 M96.8828125 0 C96.8828125 9.529388506238895, 96.8828125 19.05877701247779, 96.8828125 42.75 M96.8828125 42.75 C31.96398697632651 42.75, -32.95483854734698 42.75, -96.8828125 42.75 M96.8828125 42.75 C57.57351540672157 42.75, 18.264218313443138 42.75, -96.8828125 42.75 M-96.8828125 42.75 C-96.8828125 30.389820145075717, -96.8828125 18.029640290151438, -96.8828125 0 M-96.8828125 42.75 C-96.8828125 27.424577333697773, -96.8828125 12.099154667395545, -96.8828125 0" stroke="#9370DB" stroke-width="1.3" fill="none" stroke-dasharray="0 0"/></g><g style="" class="row-rect-odd"><path d="M-96.8828125 42.75 L96.8828125 42.75 L96.8828125 85.5 L-96.8828125 85.5" stroke="none" stroke-width="0" fill="hsl(240, 100%, 100%)"/><path d="M-96.8828125 42.75 C-47.47529321480566 42.75, 1.9322260703886798 42.75, 96.8828125 42.75 M-96.8828125 42.75 C-47.76606675444109 42.75, 1.3506789911178174 42.75, 96.8828125 42.75 M96.8828125 42.75 C96.8828125 55.27653122636318, 96.8828125 67.80306245272637, 96.8828125 85.5 M96.8828125 42.75 C96.8828125 53.19510781837679, 96.8828125 63.64021563675358, 96.8828125 85.5 M96.8828125 85.5 C54.52085186790602 85.5, 12.158891235812035 85.5, -96.8828125 85.5 M96.8828125 85.5 C47.971425467229416 85.5, -0.9399615655411679 85.5, -96.8828125 85.5 M-96.8828125 85.5 C-96.8828125 76.10674728126486, -96.8828125 66.71349456252972, -96.8828125 42.75 M-96.8828125 85.5 C-96.8828125 74.61767352948769, -96.8828125 63.73534705897539, -96.8828125 42.75" stroke="#9370DB" stroke-width="1.3" fill="none" stroke-dasharray="0 0"/></g><g class="label name" transform="translate(-45.21875, -76.125)" style=""><foreignObject width="90.4375" height="24"><div xmlns="http://www.w3.org/1999/xhtml" style="display: table-cell; white-space: nowrap; line-height: 1.5; max-width: 190px; text-align: start;"><span class="nodeLabel"><p>CUSTOMER</p></span></div></foreignObject></g><g class="label attribute-type" transform="translate(-84.3828125, -33.375)" style=""><foreignObject width="45.9375" height="24"><div xmlns="http://www.w3.org/1999/xhtml" style="display: table-cell; white-space: nowrap; line-height: 1.5; max-width: 146px; text-align: start;"><span class="nodeLabel"><p>string</p></span></div></foreignObject></g><g class="label attribute-name" transform="translate(-13.4453125, -33.375)" style=""><foreignObject width="45.375" height="24"><div xmlns="http://www.w3.org/1999/xhtml" style="display: table-cell; white-space: nowrap; line-height: 1.5; max-width: 145px; text-align: start;"><span class="nodeLabel"><p>name</p></span></div></foreignObject></g><g class="label attribute-keys" transform="translate(109.3828125, -33.375)" style=""><foreignObject width="0" height="0"><div xmlns="http://www.w3.org/1999/xhtml" style="display: table-cell; white-space: nowrap; line-height: 1.5; max-width: 100px; text-align: start;"><span class="nodeLabel"></span></div></foreignObject></g><g class="label attribute-comment" transform="translate(109.3828125, -33.375)" style=""><foreignObject width="0" height="0"><div xmlns="http://www.w3.org/1999/xhtml" style="display: table-cell; white-space: nowrap; line-height: 1.5; max-width: 100px; text-align: start;"><span class="nodeLabel"></span></div></foreignObject></g><g class="label attribute-type" transform="translate(-84.3828125, 9.375)" style=""><foreignObject width="45.9375" height="24"><div xmlns="http://www.w3.org/1999/xhtml" style="display: table-cell; white-space: nowrap; line-height: 1.5; max-width: 146px; text-align: start;"><span class="nodeLabel"><p>string</p></span></div></foreignObject></g><g class="label attribute-name" transform="translate(-13.4453125, 9.375)" style=""><foreignObject width="97.828125" height="24"><div xmlns="http://www.w3.org/1999/xhtml" style="display: table-cell; white-space: nowrap; line-height: 1.5; max-width: 198px; text-align: start;"><span class="nodeLabel"><p>custNumber</p></span></div></foreignObject></g><g class="label attribute-keys" transform="translate(109.3828125, 9.375)" style=""><foreignObject width="0" height="0"><div xmlns="http://www.w3.org/1999/xhtml" style="display: table-cell; white-space: nowrap; line-height: 1.5; max-width: 100px; text-align: start;"><span class="nodeLabel"></span></div></foreignObject></g><g class="label attribute-comment" transform="translate(109.3828125, 9.375)" style=""><foreignObject width="0" height="0"><div xmlns="http://www.w3.org/1999/xhtml" style="display: table-cell; white-space: nowrap; line-height: 1.5; max-width: 100px; text-align: start;"><span class="nodeLabel"></span></div></foreignObject></g><g class="label attribute-type" transform="translate(-84.3828125, 52.125)" style=""><foreignObject width="45.9375" height="24"><div xmlns="http://www.w3.org/1999/xhtml" style="display: table-cell; white-space: nowrap; line-height: 1.5; max-width: 146px; text-align: start;"><span class="nodeLabel"><p>string</p></span></div></foreignObject></g><g class="label attribute-name" transform="translate(-13.4453125, 52.125)" style=""><foreignObject width="49.625" height="24"><div xmlns="http://www.w3.org/1999/xhtml" style="display: table-cell; white-space: nowrap; line-height: 1.5; max-width: 150px; text-align: start;"><span class="nodeLabel"><p>sector</p></span></div></foreignObject></g><g class="label attribute-keys" transform="translate(109.3828125, 52.125)" style=""><foreignObject width="0" height="0"><div xmlns="http://www.w3.org/1999/xhtml" style="display: table-cell; white-space: nowrap; line-height: 1.5; max-width: 100px; text-align: start;"><span class="nodeLabel"></span></div></foreignObject></g><g class="label attribute-comment" transform="translate(109.3828125, 52.125)" style=""><foreignObject width="0" height="0"><div xmlns="http://www.w3.org/1999/xhtml" style="display: table-cell; white-space: nowrap; line-height: 1.5; max-width: 100px; text-align: start;"><span class="nodeLabel"></span></div></foreignObject></g><g class="divider"><path d="M-96.8828125 -42.75 C-28.20467037896225 -42.75, 40.4734717420755 -42.75, 96.8828125 -42.75 M-96.8828125 -42.75 C-20.818243740675314 -42.75, 55.24632501864937 -42.75, 96.8828125 -42.75" stroke="#9370DB" stroke-width="1.3" fill="none" stroke-dasharray="0 0"/></g><g class="divider"><path d="M-25.9453125 -42.75 C-25.9453125 -8.083224956616391, -25.9453125 26.583550086767218, -25.9453125 85.5 M-25.9453125 -42.75 C-25.9453125 -1.4447478888813947, -25.9453125 39.86050422223721, -25.9453125 85.5" stroke="#9370DB" stroke-width="1.3" fill="none" stroke-dasharray="0 0"/></g><g class="divider"><path d="M-96.8828125 -42.75 C-40.532916921445455 -42.75, 15.81697865710909 -42.75, 96.8828125 -42.75 M-96.8828125 -42.75 C-21.808411708919465 -42.75, 53.26598908216107 -42.75, 96.8828125 -42.75" stroke="#9370DB" stroke-width="1.3" fill="none" stroke-dasharray="0 0"/></g></g><g class="node default" id="entity-ORDER-1" transform="translate(119.953125, 344.125)"><g style=""><path d="M-111.953125 -64.125 L111.953125 -64.125 L111.953125 64.125 L-111.953125 64.125" stroke="none" stroke-width="0" fill="#ECECFF"/><path d="M-111.953125 -64.125 C-48.983903609805225 -64.125, 13.98531778038955 -64.125, 111.953125 -64.125 M-111.953125 -64.125 C-30.674531429732923 -64.125, 50.604062140534154 -64.125, 111.953125 -64.125 M111.953125 -64.125 C111.953125 -37.64445561082542, 111.953125 -11.163911221650828, 111.953125 64.125 M111.953125 -64.125 C111.953125 -32.349843929142054, 111.953125 -0.5746878582841077, 111.953125 64.125 M111.953125 64.125 C33.261120948983944 64.125, -45.43088310203211 64.125, -111.953125 64.125 M111.953125 64.125 C58.57608046417728 64.125, 5.1990359283545615 64.125, -111.953125 64.125 M-111.953125 64.125 C-111.953125 35.99778927357293, -111.953125 7.870578547145854, -111.953125 -64.125 M-111.953125 64.125 C-111.953125 14.367598728800466, -111.953125 -35.38980254239907, -111.953125 -64.125" stroke="#9370DB" stroke-width="1.3" fill="none" stroke-dasharray="0 0"/></g><g style="" class="row-rect-odd"><path d="M-111.953125 -21.375 L111.953125 -21.375 L111.953125 21.375 L-111.953125 21.375" stroke="none" stroke-width="0" fill="hsl(240, 100%, 100%)"/><path d="M-111.953125 -21.375 C-27.58592686285577 -21.375, 56.78127127428846 -21.375, 111.953125 -21.375 M-111.953125 -21.375 C-50.07987818785877 -21.375, 11.793368624282465 -21.375, 111.953125 -21.375 M111.953125 -21.375 C111.953125 -8.098948995788316, 111.953125 5.177102008423368, 111.953125 21.375 M111.953125 -21.375 C111.953125 -12.088115091472963, 111.953125 -2.8012301829459254, 111.953125 21.375 M111.953125 21.375 C23.88911987483523 21.375, -64.17488525032954 21.375, -111.953125 21.375 M111.953125 21.375 C46.57662788712132 21.375, -18.799869225757362 21.375, -111.953125 21.375 M-111.953125 21.375 C-111.953125 6.63828687648507, -111.953125 -8.09842624702986, -111.953125 -21.375 M-111.953125 21.375 C-111.953125 9.810660219982863, -111.953125 -1.753679560034275, -111.953125 -21.375" stroke="#9370DB" stroke-width="1.3" fill="none" stroke-dasharray="0 0"/></g><g style="" class="row-rect-even"><path d="M-111.953125 21.375 L111.953125 21.375 L111.953125 64.125 L-111.953125 64.125" stroke="none" stroke-width="0" fill="hsl(240, 100%, 97.2745098039%)"/><path d="M-111.953125 21.375 C-45.423713310748866 21.375, 21.105698378502268 21.375, 111.953125 21.375 M-111.953125 21.375 C-49.78053807869535 21.375, 12.392048842609299 21.375, 111.953125 21.375 M111.953125 21.375 C111.953125 35.8175970708737, 111.953125 50.26019414174741, 111.953125 64.125 M111.953125 21.375 C111.953125 36.94188905668669, 111.953125 52.50877811337338, 111.953125 64.125 M111.953125 64.125 C40.52898048061982 64.125, -30.895164038760356 64.125, -111.953125 64.125 M111.953125 64.125 C28.94461042129413 64.125, -54.06390415741174 64.125, -111.953125 64.125 M-111.953125 64.125 C-111.953125 47.95697852882761, -111.953125 31.788957057655225, -111.953125 21.375 M-111.953125 64.125 C-111.953125 47.045687089406904, -111.953125 29.96637417881381, -111.953125 21.375" stroke="#9370DB" stroke-width="1.3" fill="none" stroke-dasharray="0 0"/></g><g class="label name" transform="translate(-28.6328125, -54.75)" style=""><foreignObject width="57.265625" height="24"><div xmlns="http://www.w3.org/1999/xhtml" style="display: table-cell; white-space: nowrap; line-height: 1.5; max-width: 157px; text-align: start;"><span class="nodeLabel"><p>ORDER</p></span></div></foreignObject></g><g class="label attribute-type" transform="translate(-99.453125, -12)" style=""><foreignObject width="20.859375" height="24"><div xmlns="http://www.w3.org/1999/xhtml" style="display: table-cell; white-space: nowrap; line-height: 1.5; max-width: 121px; text-align: start;"><span class="nodeLabel"><p>int</p></span></div></foreignObject></g><g class="label attribute-name" transform="translate(-28.515625, -12)" style=""><foreignObject width="106.9375" height="24"><div xmlns="http://www.w3.org/1999/xhtml" style="display: table-cell; white-space: nowrap; line-height: 1.5; max-width: 207px; text-align: start;"><span class="nodeLabel"><p>orderNumber</p></span></div></foreignObject></g><g class="label attribute-keys" transform="translate(124.453125, -12)" style=""><foreignObject width="0" height="0"><div xmlns="http://www.w3.org/1999/xhtml" style="display: table-cell; white-space: nowrap; line-height: 1.5; max-width: 100px; text-align: start;"><span class="nodeLabel"></span></div></foreignObject></g><g class="label attribute-comment" transform="translate(124.453125, -12)" style=""><foreignObject width="0" height="0"><div xmlns="http://www.w3.org/1999/xhtml" style="display: table-cell; white-space: nowrap; line-height: 1.5; max-width: 100px; text-align: start;"><span class="nodeLabel"></span></div></foreignObject></g><g class="label attribute-type" transform="translate(-99.453125, 30.75)" style=""><foreignObject width="45.9375" height="24"><div xmlns="http://www.w3.org/1999/xhtml" style="display: table-cell; white-space: nowrap; line-height: 1.5; max-width: 146px; text-align: start;"><span class="nodeLabel"><p>string</p></span></div></foreignObject></g><g class="label attribute-name" transform="translate(-28.515625, 30.75)" style=""><foreignObject width="127.96875" height="24"><div xmlns="http://www.w3.org/1999/xhtml" style="display: table-cell; white-space: nowrap; line-height: 1.5; max-width: 228px; text-align: start;"><span class="nodeLabel"><p>deliveryAddress</p></span></div></foreignObject></g><g class="label attribute-keys" transform="translate(124.453125, 30.75)" style=""><foreignObject width="0" height="0"><div xmlns="http://www.w3.org/1999/xhtml" style="display: table-cell; white-space: nowrap; line-height: 1.5; max-width: 100px; text-align: start;"><span class="nodeLabel"></span></div></foreignObject></g><g class="label attribute-comment" transform="translate(124.453125, 30.75)" style=""><foreignObject width="0" height="0"><div xmlns="http://www.w3.org/1999/xhtml" style="display: table-cell; white-space: nowrap; line-height: 1.5; max-width: 100px; text-align: start;"><span class="nodeLabel"></span></div></foreignObject></g><g class="divider"><path d="M-111.953125 -21.375 C-38.48825309768833 -21.375, 34.97661880462334 -21.375, 111.953125 -21.375 M-111.953125 -21.375 C-36.79495149616196 -21.375, 38.363222007676086 -21.375, 111.953125 -21.375" stroke="#9370DB" stroke-width="1.3" fill="none" stroke-dasharray="0 0"/></g><g class="divider"><path d="M-41.015625 -21.375 C-41.015625 -2.1416168147167767, -41.015625 17.091766370566447, -41.015625 64.125 M-41.015625 -21.375 C-41.015625 3.094587397612788, -41.015625 27.564174795225576, -41.015625 64.125" stroke="#9370DB" stroke-width="1.3" fill="none" stroke-dasharray="0 0"/></g><g class="divider"><path d="M-111.953125 -21.375 C-24.521090045704227 -21.375, 62.910944908591546 -21.375, 111.953125 -21.375 M-111.953125 -21.375 C-42.354836069765426 -21.375, 27.243452860469148 -21.375, 111.953125 -21.375" stroke="#9370DB" stroke-width="1.3" fill="none" stroke-dasharray="0 0"/></g></g><g class="node default" id="entity-LINE-ITEM-2" transform="translate(119.953125, 594.75)"><g style=""><path d="M-99.21875 -85.5 L99.21875 -85.5 L99.21875 85.5 L-99.21875 85.5" stroke="none" stroke-width="0" fill="#ECECFF"/><path d="M-99.21875 -85.5 C-43.02554684451944 -85.5, 13.16765631096112 -85.5, 99.21875 -85.5 M-99.21875 -85.5 C-58.19147732258062 -85.5, -17.164204645161234 -85.5, 99.21875 -85.5 M99.21875 -85.5 C99.21875 -31.33677178028094, 99.21875 22.826456439438118, 99.21875 85.5 M99.21875 -85.5 C99.21875 -35.20625859083251, 99.21875 15.087482818334976, 99.21875 85.5 M99.21875 85.5 C28.952886163920624 85.5, -41.31297767215875 85.5, -99.21875 85.5 M99.21875 85.5 C20.59006626300983 85.5, -58.03861747398034 85.5, -99.21875 85.5 M-99.21875 85.5 C-99.21875 31.171806504726767, -99.21875 -23.156386990546466, -99.21875 -85.5 M-99.21875 85.5 C-99.21875 36.29969378612466, -99.21875 -12.900612427750687, -99.21875 -85.5" stroke="#9370DB" stroke-width="1.3" fill="none" stroke-dasharray="0 0"/></g><g style="" class="row-rect-odd"><path d="M-99.21875 -42.75 L99.21875 -42.75 L99.21875 0 L-99.21875 0" stroke="none" stroke-width="0" fill="hsl(240, 100%, 100%)"/><path d="M-99.21875 -42.75 C-49.90426770290304 -42.75, -0.589785405806083 -42.75, 99.21875 -42.75 M-99.21875 -42.75 C-41.29265869900228 -42.75, 16.633432601995437 -42.75, 99.21875 -42.75 M99.21875 -42.75 C99.21875 -28.18270729053213, 99.21875 -13.615414581064261, 99.21875 0 M99.21875 -42.75 C99.21875 -25.69441782599092, 99.21875 -8.638835651981843, 99.21875 0 M99.21875 0 C26.304559515430682 0, -46.609630969138635 0, -99.21875 0 M99.21875 0 C58.88751893682219 0, 18.55628787364438 0, -99.21875 0 M-99.21875 0 C-99.21875 -10.986805803388483, -99.21875 -21.973611606776966, -99.21875 -42.75 M-99.21875 0 C-99.21875 -13.867143261441045, -99.21875 -27.73428652288209, -99.21875 -42.75" stroke="#9370DB" stroke-width="1.3" fill="none" stroke-dasharray="0 0"/></g><g style="" class="row-rect-even"><path d="M-99.21875 0 L99.21875 0 L99.21875 42.75 L-99.21875 42.75" stroke="none" stroke-width="0" fill="hsl(240, 100%, 97.2745098039%)"/><path d="M-99.21875 0 C-34.4312097800328 0, 30.356330439934396 0, 99.21875 0 M-99.21875 0 C-45.840728449938105 0, 7.53729310012379 0, 99.21875 0 M99.21875 0 C99.21875 9.8343832501721, 99.21875 19.6687665003442, 99.21875 42.75 M99.21875 0 C99.21875 16.286539513965955, 99.21875 32.57307902793191, 99.21875 42.75 M99.21875 42.75 C29.994809708714385 42.75, -39.22913058257123 42.75, -99.21875 42.75 M99.21875 42.75 C39.1416163212124 42.75, -20.935517357575193 42.75, -99.21875 42.75 M-99.21875 42.75 C-99.21875 29.714717166036017, -99.21875 16.67943433207203, -99.21875 0 M-99.21875 42.75 C-99.21875 32.244533570849384, -99.21875 21.739067141698776, -99.21875 0" stroke="#9370DB" stroke-width="1.3" fill="none" stroke-dasharray="0 0"/></g><g style="" class="row-rect-odd"><path d="M-99.21875 42.75 L99.21875 42.75 L99.21875 85.5 L-99.21875 85.5" stroke="none" stroke-width="0" fill="hsl(240, 100%, 100%)"/><path d="M-99.21875 42.75 C-29.478867723350717 42.75, 40.261014553298565 42.75, 99.21875 42.75 M-99.21875 42.75 C-27.572144921381152 42.75, 44.074460157237695 42.75, 99.21875 42.75 M99.21875 42.75 C99.21875 55.92572410164977, 99.21875 69.10144820329954, 99.21875 85.5 M99.21875 42.75 C99.21875 57.65408932913055, 99.21875 72.5581786582611, 99.21875 85.5 M99.21875 85.5 C36.39969134944313 85.5, -26.419367301113738 85.5, -99.21875 85.5 M99.21875 85.5 C31.935260028144086 85.5, -35.34822994371183 85.5, -99.21875 85.5 M-99.21875 85.5 C-99.21875 69.42034928924437, -99.21875 53.340698578488734, -99.21875 42.75 M-99.21875 85.5 C-99.21875 70.74950703207988, -99.21875 55.99901406415974, -99.21875 42.75" stroke="#9370DB" stroke-width="1.3" fill="none" stroke-dasharray="0 0"/></g><g class="label name" transform="translate(-39.9453125, -76.125)" style=""><foreignObject width="79.890625" height="24"><div xmlns="http://www.w3.org/1999/xhtml" style="display: table-cell; white-space: nowrap; line-height: 1.5; max-width: 180px; text-align: start;"><span class="nodeLabel"><p>LINE-ITEM</p></span></div></foreignObject></g><g class="label attribute-type" transform="translate(-86.71875, -33.375)" style=""><foreignObject width="45.9375" height="24"><div xmlns="http://www.w3.org/1999/xhtml" style="display: table-cell; white-space: nowrap; line-height: 1.5; max-width: 146px; text-align: start;"><span class="nodeLabel"><p>string</p></span></div></foreignObject></g><g class="label attribute-name" transform="translate(-15.78125, -33.375)" style=""><foreignObject width="102.5" height="24"><div xmlns="http://www.w3.org/1999/xhtml" style="display: table-cell; white-space: nowrap; line-height: 1.5; max-width: 203px; text-align: start;"><span class="nodeLabel"><p>productCode</p></span></div></foreignObject></g><g class="label attribute-keys" transform="translate(111.71875, -33.375)" style=""><foreignObject width="0" height="0"><div xmlns="http://www.w3.org/1999/xhtml" style="display: table-cell; white-space: nowrap; line-height: 1.5; max-width: 100px; text-align: start;"><span class="nodeLabel"></span></div></foreignObject></g><g class="label attribute-comment" transform="translate(111.71875, -33.375)" style=""><foreignObject width="0" height="0"><div xmlns="http://www.w3.org/1999/xhtml" style="display: table-cell; white-space: nowrap; line-height: 1.5; max-width: 100px; text-align: start;"><span class="nodeLabel"></span></div></foreignObject></g><g class="label attribute-type" transform="translate(-86.71875, 9.375)" style=""><foreignObject width="20.859375" height="24"><div xmlns="http://www.w3.org/1999/xhtml" style="display: table-cell; white-space: nowrap; line-height: 1.5; max-width: 121px; text-align: start;"><span class="nodeLabel"><p>int</p></span></div></foreignObject></g><g class="label attribute-name" transform="translate(-15.78125, 9.375)" style=""><foreignObject width="66.703125" height="24"><div xmlns="http://www.w3.org/1999/xhtml" style="display: table-cell; white-space: nowrap; line-height: 1.5; max-width: 167px; text-align: start;"><span class="nodeLabel"><p>quantity</p></span></div></foreignObject></g><g class="label attribute-keys" transform="translate(111.71875, 9.375)" style=""><foreignObject width="0" height="0"><div xmlns="http://www.w3.org/1999/xhtml" style="display: table-cell; white-space: nowrap; line-height: 1.5; max-width: 100px; text-align: start;"><span class="nodeLabel"></span></div></foreignObject></g><g class="label attribute-comment" transform="translate(111.71875, 9.375)" style=""><foreignObject width="0" height="0"><div xmlns="http://www.w3.org/1999/xhtml" style="display: table-cell; white-space: nowrap; line-height: 1.5; max-width: 100px; text-align: start;"><span class="nodeLabel"></span></div></foreignObject></g><g class="label attribute-type" transform="translate(-86.71875, 52.125)" style=""><foreignObject width="35.953125" height="24"><div xmlns="http://www.w3.org/1999/xhtml" style="display: table-cell; white-space: nowrap; line-height: 1.5; max-width: 136px; text-align: start;"><span class="nodeLabel"><p>float</p></span></div></foreignObject></g><g class="label attribute-name" transform="translate(-15.78125, 52.125)" style=""><foreignObject width="97.890625" height="24"><div xmlns="http://www.w3.org/1999/xhtml" style="display: table-cell; white-space: nowrap; line-height: 1.5; max-width: 198px; text-align: start;"><span class="nodeLabel"><p>pricePerUnit</p></span></div></foreignObject></g><g class="label attribute-keys" transform="translate(111.71875, 52.125)" style=""><foreignObject width="0" height="0"><div xmlns="http://www.w3.org/1999/xhtml" style="display: table-cell; white-space: nowrap; line-height: 1.5; max-width: 100px; text-align: start;"><span class="nodeLabel"></span></div></foreignObject></g><g class="label attribute-comment" transform="translate(111.71875, 52.125)" style=""><foreignObject width="0" height="0"><div xmlns="http://www.w3.org/1999/xhtml" style="display: table-cell; white-space: nowrap; line-height: 1.5; max-width: 100px; text-align: start;"><span class="nodeLabel"></span></div></foreignObject></g><g class="divider"><path d="M-99.21875 -42.75 C-29.961848153848024 -42.75, 39.29505369230395 -42.75, 99.21875 -42.75 M-99.21875 -42.75 C-50.39356768999074 -42.75, -1.5683853799814784 -42.75, 99.21875 -42.75" stroke="#9370DB" stroke-width="1.3" fill="none" stroke-dasharray="0 0"/></g><g class="divider"><path d="M-28.28125 -42.75 C-28.28125 0.13684461116626068, -28.28125 43.02368922233252, -28.28125 85.5 M-28.28125 -42.75 C-28.28125 -1.1492050785112937, -28.28125 40.45158984297741, -28.28125 85.5" stroke="#9370DB" stroke-width="1.3" fill="none" stroke-dasharray="0 0"/></g><g class="divider"><path d="M-99.21875 -42.75 C-23.11673863678486 -42.75, 52.98527272643028 -42.75, 99.21875 -42.75 M-99.21875 -42.75 C-34.55420976810035 -42.75, 30.1103304637993 -42.75, 99.21875 -42.75" stroke="#9370DB" stroke-width="1.3" fill="none" stroke-dasharray="0 0"/></g></g><g class="node default" id="entity-DELIVERY-ADDRESS-3" transform="translate(470.7265625, 344.125)"><rect class="basic label-container" style="" x="-98.8203125" y="-42" width="197.640625" height="84"/><g class="label" style="" transform="translate(-78.8203125, -12)"><rect/><foreignObject width="157.640625" height="24"><div xmlns="http://www.w3.org/1999/xhtml" style="display: table-cell; white-space: nowrap; line-height: 1.5; max-width: 200px; text-align: center;"><span class="nodeLabel"><p>DELIVERY-ADDRESS</p></span></div></foreignObject></g></g></g></g></g></svg>