<?xml version="1.0" encoding="UTF-8" standalone="no"?>
<!DOCTYPE svg PUBLIC "-//W3C//DTD SVG 1.1//EN"
 "http://www.w3.org/Graphics/SVG/1.1/DTD/svg11.dtd">
<!-- Generated by graphviz version 12.2.1 (20241206.2353)
 -->
<!-- Title: R Pages: 1 -->
<svg width="330pt" height="45pt"
 viewBox="0.00 0.00 330.30 45.00" xmlns="http://www.w3.org/2000/svg" xmlns:xlink="http://www.w3.org/1999/xlink">
<g id="graph0" class="graph" transform="scale(1 1) rotate(0) translate(4 41)">
<title>R</title>
<polygon fill="white" stroke="none" points="-4,4 -4,-41 326.3,-41 326.3,4 -4,4"/>
<!-- node1 -->
<g id="node1" class="node">
<title>node1</title>
<path fill="none" stroke="black" d="M47.5,-36.5C47.5,-36.5 12,-36.5 12,-36.5 6,-36.5 0,-30.5 0,-24.5 0,-24.5 0,-12.5 0,-12.5 0,-6.5 6,-0.5 12,-0.5 12,-0.5 47.5,-0.5 47.5,-0.5 53.5,-0.5 59.5,-6.5 59.5,-12.5 59.5,-12.5 59.5,-24.5 59.5,-24.5 59.5,-30.5 53.5,-36.5 47.5,-36.5"/>
<text text-anchor="middle" x="29.75" y="-13.82" font-family="Times,serif" font-size="14.00">node1</text>
</g>
<!-- node2 -->
<g id="node2" class="node">
<title>node2</title>
<path fill="yellow" stroke="black" d="M143.05,-33C143.05,-33 106.98,-22 106.98,-22 101.24,-20.25 101.24,-16.75 106.98,-15 106.98,-15 143.05,-4 143.05,-4 148.79,-2.25 160.27,-2.25 166,-4 166,-4 202.07,-15 202.07,-15 207.81,-16.75 207.81,-20.25 202.07,-22 202.07,-22 166,-33 166,-33 160.27,-34.75 148.79,-34.75 143.05,-33"/>
<text text-anchor="middle" x="154.53" y="-13.82" font-family="Times,serif" font-size="14.00">node2</text>
</g>
<!-- node1&#45;&gt;node2 -->
<g id="edge1" class="edge">
<title>node1&#45;&gt;node2</title>
<path fill="none" stroke="black" d="M59.85,-18.5C66.88,-18.5 74.71,-18.5 82.76,-18.5"/>
<polygon fill="black" stroke="black" points="82.71,-22 92.71,-18.5 82.71,-15 82.71,-22"/>
</g>
<!-- node3 -->
<g id="node3" class="node">
<title>node3</title>
<path fill="none" stroke="black" d="M261.55,-0.5C261.55,-0.5 310.3,-0.5 310.3,-0.5 316.3,-0.5 322.3,-6.5 322.3,-12.5 322.3,-12.5 322.3,-24.5 322.3,-24.5 322.3,-30.5 316.3,-36.5 310.3,-36.5 310.3,-36.5 261.55,-36.5 261.55,-36.5 255.55,-36.5 249.55,-30.5 249.55,-24.5 249.55,-24.5 249.55,-12.5 249.55,-12.5 249.55,-6.5 255.55,-0.5 261.55,-0.5"/>
<text text-anchor="middle" x="261.68" y="-14.2" font-family="Times,serif" font-size="14.00">a</text>
<polyline fill="none" stroke="black" points="273.8,-1.25 273.8,-36.5"/>
<text text-anchor="middle" x="286.3" y="-14.2" font-family="Times,serif" font-size="14.00">b</text>
<polyline fill="none" stroke="black" points="298.8,-1.25 298.8,-36.5"/>
<text text-anchor="middle" x="310.55" y="-14.2" font-family="Times,serif" font-size="14.00">c</text>
</g>
<!-- node2&#45;&gt;node3 -->
<g id="edge2" class="edge">
<title>node2&#45;&gt;node3</title>
<path fill="none" stroke="black" d="M214.93,-18.5C222.6,-18.5 230.37,-18.5 237.81,-18.5"/>
<polygon fill="black" stroke="black" points="237.65,-22 247.65,-18.5 237.65,-15 237.65,-22"/>
</g>
</g>
</svg>
