<?xml version="1.0" encoding="UTF-8" standalone="no"?>
<!DOCTYPE svg PUBLIC "-//W3C//DTD SVG 1.1//EN"
 "http://www.w3.org/Graphics/SVG/1.1/DTD/svg11.dtd">
<!-- Generated by graphviz version 12.2.1 (20241206.2353)
 -->
<!-- Title: R Pages: 1 -->
<svg width="330pt" height="45pt"
 viewBox="0.00 0.00 330.30 45.00" xmlns="http://www.w3.org/2000/svg" xmlns:xlink="http://www.w3.org/1999/xlink">
<g id="graph0" class="graph" transform="scale(1 1) rotate(0) translate(4 41)">
<title>R</title>
<polygon fill="white" stroke="none" points="-4,4 -4,-41 326,-41 326,4 -4,4"/>
<!-- node1 -->
<g id="node1" class="node">
<title>node1</title>
<path fill="none" stroke="black" d="M48,-37C48,-37 12,-37 12,-37 6,-37 0,-31 0,-25 0,-25 0,-13 0,-13 0,-7 6,-1 12,-1 12,-1 48,-1 48,-1 54,-1 60,-7 60,-13 60,-13 60,-25 60,-25 60,-31 54,-37 48,-37"/>
<text text-anchor="middle" x="30" y="-14" font-family="Times,serif" font-size="14.00">node1</text>
</g>
<!-- node2 -->
<g id="node2" class="node">
<title>node2</title>
<path fill="yellow" stroke="black" d="M143,-33C143,-33 107,-22 107,-22 101,-20 101,-17 107,-15 107,-15 143,-4 143,-4 149,-2 160,-2 166,-4 166,-4 202,-15 202,-15 208,-17 208,-20 202,-22 202,-22 166,-33 166,-33 160,-35 149,-35 143,-33"/>
<text text-anchor="middle" x="155" y="-14" font-family="Times,serif" font-size="14.00">node2</text>
</g>
<!-- node1&#45;&gt;node2 -->
<g id="edge1" class="edge">
<title>node1&#45;&gt;node2</title>
<path fill="none" stroke="black" d="M60,-19C67,-19 75,-19 83,-19"/>
<polygon fill="black" stroke="black" points="83,-22 93,-19 83,-15 83,-22"/>
</g>
<!-- node3 -->
<g id="node3" class="node">
<title>node3</title>
<path fill="none" stroke="black" d="M262,-1C262,-1 310,-1 310,-1 316,-1 322,-7 322,-13 322,-13 322,-25 322,-25 322,-31 316,-37 310,-37 310,-37 262,-37 262,-37 256,-37 250,-31 250,-25 250,-25 250,-13 250,-13 250,-7 256,-1 262,-1"/>
<text text-anchor="middle" x="262" y="-14" font-family="Times,serif" font-size="14.00">a</text>
<polyline fill="none" stroke="black" points="274,-1 274,-37"/>
<text text-anchor="middle" x="286" y="-14" font-family="Times,serif" font-size="14.00">b</text>
<polyline fill="none" stroke="black" points="299,-1 299,-37"/>
<text text-anchor="middle" x="311" y="-14" font-family="Times,serif" font-size="14.00">c</text>
</g>
<!-- node2&#45;&gt;node3 -->
<g id="edge2" class="edge">
<title>node2&#45;&gt;node3</title>
<path fill="none" stroke="black" d="M215,-19C223,-19 230,-19 238,-19"/>
<polygon fill="black" stroke="black" points="238,-22 248,-19 238,-15 238,-22"/>
</g>
</g>
</svg>
