<?xml version="1.0" encoding="UTF-8" standalone="no"?>
<!DOCTYPE svg PUBLIC "-//W3C//DTD SVG 1.1//EN"
 "http://www.w3.org/Graphics/SVG/1.1/DTD/svg11.dtd">
<!-- Generated by graphviz version 12.2.1 (20241206.2353)
 -->
<!-- Title: DepGraph Pages: 1 -->
<svg width="2576pt" height="441pt"
 viewBox="0.00 0.00 2576.05 440.80" xmlns="http://www.w3.org/2000/svg" xmlns:xlink="http://www.w3.org/1999/xlink">
<g id="graph0" class="graph" transform="scale(1 1) rotate(0) translate(14.4 426.4)">
<title>DepGraph</title>
<polygon fill="white" stroke="none" points="-14,14 -14,-426 2562,-426 2562,14 -14,14"/>
<!-- github.com/codemityio/notatio -->
<g id="node1" class="node">
<title>github.com/codemityio/notatio</title>
<polygon fill="#fcfcfc" stroke="#949494" points="509,-412 266,-412 266,-416 254,-416 254,-376 509,-376 509,-412"/>
<polyline fill="none" stroke="#949494" points="254,-412 266,-412"/>
<text text-anchor="middle" x="382" y="-389" font-family="Courier New" font-size="14.00">github.com/codemityio/notatio</text>
</g>
<!-- github.com/codemityio/notatio/cmd/coi -->
<g id="node2" class="node">
<title>github.com/codemityio/notatio/cmd/coi</title>
<polygon fill="#fcfcfc" stroke="#949494" points="321,-318 12,-318 12,-322 0,-322 0,-282 321,-282 321,-318"/>
<polyline fill="none" stroke="#949494" points="0,-318 12,-318"/>
<text text-anchor="middle" x="161" y="-295" font-family="Courier New" font-size="14.00">github.com/codemityio/notatio/cmd/coi</text>
</g>
<!-- github.com/codemityio/notatio&#45;&gt;github.com/codemityio/notatio/cmd/coi -->
<g id="edge1" class="edge">
<title>github.com/codemityio/notatio&#45;&gt;github.com/codemityio/notatio/cmd/coi</title>
<path fill="none" stroke="#a8a8a8" d="M288,-376C288,-376 288,-326 288,-326"/>
<polygon fill="#a8a8a8" stroke="#a8a8a8" points="290,-326 288,-320 286,-326 290,-326"/>
</g>
<!-- github.com/codemityio/notatio/cmd/graphviz -->
<g id="node3" class="node">
<title>github.com/codemityio/notatio/cmd/graphviz</title>
<polygon fill="#fcfcfc" stroke="#949494" points="785,-318 434,-318 434,-322 422,-322 422,-282 785,-282 785,-318"/>
<polyline fill="none" stroke="#949494" points="422,-318 434,-318"/>
<text text-anchor="middle" x="604" y="-295" font-family="Courier New" font-size="14.00">github.com/codemityio/notatio/cmd/graphviz</text>
</g>
<!-- github.com/codemityio/notatio&#45;&gt;github.com/codemityio/notatio/cmd/graphviz -->
<g id="edge2" class="edge">
<title>github.com/codemityio/notatio&#45;&gt;github.com/codemityio/notatio/cmd/graphviz</title>
<path fill="none" stroke="#a8a8a8" d="M466,-376C466,-376 466,-326 466,-326"/>
<polygon fill="#a8a8a8" stroke="#a8a8a8" points="468,-326 466,-320 464,-326 468,-326"/>
</g>
<!-- github.com/codemityio/notatio/cmd/mermaid -->
<g id="node4" class="node">
<title>github.com/codemityio/notatio/cmd/mermaid</title>
<polygon fill="#fcfcfc" stroke="#949494" points="1240,-318 898,-318 898,-322 886,-322 886,-282 1240,-282 1240,-318"/>
<polyline fill="none" stroke="#949494" points="886,-318 898,-318"/>
<text text-anchor="middle" x="1063" y="-295" font-family="Courier New" font-size="14.00">github.com/codemityio/notatio/cmd/mermaid</text>
</g>
<!-- github.com/codemityio/notatio&#45;&gt;github.com/codemityio/notatio/cmd/mermaid -->
<g id="edge3" class="edge">
<title>github.com/codemityio/notatio&#45;&gt;github.com/codemityio/notatio/cmd/mermaid</title>
<path fill="none" stroke="#a8a8a8" d="M510,-383C707,-383 1063,-383 1063,-383 1063,-383 1063,-326 1063,-326"/>
<polygon fill="#a8a8a8" stroke="#a8a8a8" points="1065,-326 1063,-320 1061,-326 1065,-326"/>
</g>
<!-- github.com/codemityio/notatio/cmd/plantuml -->
<g id="node5" class="node">
<title>github.com/codemityio/notatio/cmd/plantuml</title>
<polygon fill="#fcfcfc" stroke="#949494" points="1703,-318 1352,-318 1352,-322 1340,-322 1340,-282 1703,-282 1703,-318"/>
<polyline fill="none" stroke="#949494" points="1340,-318 1352,-318"/>
<text text-anchor="middle" x="1522" y="-295" font-family="Courier New" font-size="14.00">github.com/codemityio/notatio/cmd/plantuml</text>
</g>
<!-- github.com/codemityio/notatio&#45;&gt;github.com/codemityio/notatio/cmd/plantuml -->
<g id="edge4" class="edge">
<title>github.com/codemityio/notatio&#45;&gt;github.com/codemityio/notatio/cmd/plantuml</title>
<path fill="none" stroke="#a8a8a8" d="M510,-390C807,-390 1522,-390 1522,-390 1522,-390 1522,-326 1522,-326"/>
<polygon fill="#a8a8a8" stroke="#a8a8a8" points="1524,-326 1522,-320 1520,-326 1524,-326"/>
</g>
<!-- github.com/codemityio/notatio/cmd/toc -->
<g id="node6" class="node">
<title>github.com/codemityio/notatio/cmd/toc</title>
<polygon fill="#fcfcfc" stroke="#949494" points="2125,-318 1816,-318 1816,-322 1804,-322 1804,-282 2125,-282 2125,-318"/>
<polyline fill="none" stroke="#949494" points="1804,-318 1816,-318"/>
<text text-anchor="middle" x="1965" y="-295" font-family="Courier New" font-size="14.00">github.com/codemityio/notatio/cmd/toc</text>
</g>
<!-- github.com/codemityio/notatio&#45;&gt;github.com/codemityio/notatio/cmd/toc -->
<g id="edge5" class="edge">
<title>github.com/codemityio/notatio&#45;&gt;github.com/codemityio/notatio/cmd/toc</title>
<path fill="none" stroke="#a8a8a8" d="M509,-398C886,-398 1965,-398 1965,-398 1965,-398 1965,-326 1965,-326"/>
<polygon fill="#a8a8a8" stroke="#a8a8a8" points="1967,-326 1965,-320 1963,-326 1967,-326"/>
</g>
<!-- github.com/codemityio/notatio/cmd/tol -->
<g id="node7" class="node">
<title>github.com/codemityio/notatio/cmd/tol</title>
<polygon fill="#fcfcfc" stroke="#949494" points="2547,-318 2238,-318 2238,-322 2226,-322 2226,-282 2547,-282 2547,-318"/>
<polyline fill="none" stroke="#949494" points="2226,-318 2238,-318"/>
<text text-anchor="middle" x="2387" y="-295" font-family="Courier New" font-size="14.00">github.com/codemityio/notatio/cmd/tol</text>
</g>
<!-- github.com/codemityio/notatio&#45;&gt;github.com/codemityio/notatio/cmd/tol -->
<g id="edge6" class="edge">
<title>github.com/codemityio/notatio&#45;&gt;github.com/codemityio/notatio/cmd/tol</title>
<path fill="none" stroke="#a8a8a8" d="M510,-405C952,-405 2387,-405 2387,-405 2387,-405 2387,-326 2387,-326"/>
<polygon fill="#a8a8a8" stroke="#a8a8a8" points="2389,-326 2387,-320 2385,-326 2389,-326"/>
</g>
<!-- github.com/urfave/cli/v2 -->
<g id="node8" class="node">
<title>github.com/urfave/cli/v2</title>
<polygon fill="#d4d4d4" stroke="#a6a6a6" points="489,-224 287,-224 287,-228 275,-228 275,-188 489,-188 489,-224"/>
<polyline fill="none" stroke="#a6a6a6" points="275,-224 287,-224"/>
<text text-anchor="middle" x="382" y="-201" font-family="Courier New" font-size="14.00">github.com/urfave/cli/v2</text>
</g>
<!-- github.com/codemityio/notatio&#45;&gt;github.com/urfave/cli/v2 -->
<g id="edge7" class="edge">
<title>github.com/codemityio/notatio&#45;&gt;github.com/urfave/cli/v2</title>
<path fill="none" stroke="#a8a8a8" d="M372,-376C372,-376 372,-232 372,-232"/>
<polygon fill="#a8a8a8" stroke="#a8a8a8" points="374,-232 372,-226 370,-232 374,-232"/>
</g>
<!-- github.com/codemityio/notatio/cmd/coi&#45;&gt;github.com/urfave/cli/v2 -->
<g id="edge8" class="edge">
<title>github.com/codemityio/notatio/cmd/coi&#45;&gt;github.com/urfave/cli/v2</title>
<path fill="none" stroke="#a8a8a8" d="M298,-282C298,-282 298,-232 298,-232"/>
<polygon fill="#a8a8a8" stroke="#a8a8a8" points="300,-232 298,-226 296,-232 300,-232"/>
</g>
<!-- github.com/codemityio/notatio/cmd/graphviz&#45;&gt;github.com/urfave/cli/v2 -->
<g id="edge9" class="edge">
<title>github.com/codemityio/notatio/cmd/graphviz&#45;&gt;github.com/urfave/cli/v2</title>
<path fill="none" stroke="#a8a8a8" d="M456,-282C456,-282 456,-232 456,-232"/>
<polygon fill="#a8a8a8" stroke="#a8a8a8" points="458,-232 456,-226 453,-232 458,-232"/>
</g>
<!-- github.com/codemityio/notatio/cmd/mermaid&#45;&gt;github.com/urfave/cli/v2 -->
<g id="edge10" class="edge">
<title>github.com/codemityio/notatio/cmd/mermaid&#45;&gt;github.com/urfave/cli/v2</title>
<path fill="none" stroke="#a8a8a8" d="M1063,-282C1063,-257 1063,-217 1063,-217 1063,-217 496,-217 496,-217"/>
<polygon fill="#a8a8a8" stroke="#a8a8a8" points="496,-215 490,-217 496,-219 496,-215"/>
</g>
<!-- github.com/codemityio/notatio/cmd/plantuml&#45;&gt;github.com/urfave/cli/v2 -->
<g id="edge11" class="edge">
<title>github.com/codemityio/notatio/cmd/plantuml&#45;&gt;github.com/urfave/cli/v2</title>
<path fill="none" stroke="#a8a8a8" d="M1522,-282C1522,-255 1522,-210 1522,-210 1522,-210 496,-210 496,-210"/>
<polygon fill="#a8a8a8" stroke="#a8a8a8" points="496,-208 490,-210 496,-212 496,-208"/>
</g>
<!-- github.com/codemityio/notatio/cmd/toc&#45;&gt;github.com/urfave/cli/v2 -->
<g id="edge12" class="edge">
<title>github.com/codemityio/notatio/cmd/toc&#45;&gt;github.com/urfave/cli/v2</title>
<path fill="none" stroke="#a8a8a8" d="M1965,-282C1965,-253 1965,-202 1965,-202 1965,-202 496,-202 496,-202"/>
<polygon fill="#a8a8a8" stroke="#a8a8a8" points="496,-200 490,-202 496,-204 496,-200"/>
</g>
<!-- github.com/codemityio/notatio/cmd/tol&#45;&gt;github.com/urfave/cli/v2 -->
<g id="edge13" class="edge">
<title>github.com/codemityio/notatio/cmd/tol&#45;&gt;github.com/urfave/cli/v2</title>
<path fill="none" stroke="#a8a8a8" d="M2387,-282C2387,-252 2387,-195 2387,-195 2387,-195 497,-195 497,-195"/>
<polygon fill="#a8a8a8" stroke="#a8a8a8" points="497,-193 491,-195 497,-197 497,-193"/>
</g>
<!-- github.com/cpuguy83/go&#45;md2man/v2/md2man -->
<g id="node9" class="node">
<title>github.com/cpuguy83/go&#45;md2man/v2/md2man</title>
<polygon fill="#d4d4d4" stroke="#a6a6a6" points="391,-130 65,-130 65,-134 53,-134 53,-94 391,-94 391,-130"/>
<polyline fill="none" stroke="#a6a6a6" points="53,-130 65,-130"/>
<text text-anchor="middle" x="222" y="-107" font-family="Courier New" font-size="14.00">github.com/cpuguy83/go&#45;md2man/v2/md2man</text>
</g>
<!-- github.com/urfave/cli/v2&#45;&gt;github.com/cpuguy83/go&#45;md2man/v2/md2man -->
<g id="edge15" class="edge">
<title>github.com/urfave/cli/v2&#45;&gt;github.com/cpuguy83/go&#45;md2man/v2/md2man</title>
<path fill="none" stroke="#a8a8a8" d="M333,-188C333,-188 333,-138 333,-138"/>
<polygon fill="#a8a8a8" stroke="#a8a8a8" points="335,-138 333,-132 330,-138 335,-138"/>
</g>
<!-- github.com/xrash/smetrics -->
<g id="node11" class="node">
<title>github.com/xrash/smetrics</title>
<polygon fill="#d4d4d4" stroke="#a6a6a6" points="674,-36 464,-36 464,-40 452,-40 452,0 674,0 674,-36"/>
<polyline fill="none" stroke="#a6a6a6" points="452,-36 464,-36"/>
<text text-anchor="middle" x="563" y="-13" font-family="Courier New" font-size="14.00">github.com/xrash/smetrics</text>
</g>
<!-- github.com/urfave/cli/v2&#45;&gt;github.com/xrash/smetrics -->
<g id="edge16" class="edge">
<title>github.com/urfave/cli/v2&#45;&gt;github.com/xrash/smetrics</title>
<path fill="none" stroke="#a8a8a8" d="M470,-188C470,-188 470,-44 470,-44"/>
<polygon fill="#a8a8a8" stroke="#a8a8a8" points="472,-44 470,-38 468,-44 472,-44"/>
</g>
<!-- github.com/russross/blackfriday/v2 -->
<g id="node10" class="node">
<title>github.com/russross/blackfriday/v2</title>
<polygon fill="#d4d4d4" stroke="#a6a6a6" points="351,-36 66,-36 66,-40 54,-40 54,0 351,0 351,-36"/>
<polyline fill="none" stroke="#a6a6a6" points="54,-36 66,-36"/>
<text text-anchor="middle" x="203" y="-13" font-family="Courier New" font-size="14.00">github.com/russross/blackfriday/v2</text>
</g>
<!-- github.com/cpuguy83/go&#45;md2man/v2/md2man&#45;&gt;github.com/russross/blackfriday/v2 -->
<g id="edge14" class="edge">
<title>github.com/cpuguy83/go&#45;md2man/v2/md2man&#45;&gt;github.com/russross/blackfriday/v2</title>
<path fill="none" stroke="#a8a8a8" d="M203,-94C203,-94 203,-44 203,-44"/>
<polygon fill="#a8a8a8" stroke="#a8a8a8" points="205,-44 203,-38 201,-44 205,-44"/>
</g>
</g>
</svg>
