<?xml version="1.0" encoding="UTF-8" standalone="no"?>
<!DOCTYPE svg PUBLIC "-//W3C//DTD SVG 1.1//EN"
 "http://www.w3.org/Graphics/SVG/1.1/DTD/svg11.dtd">
<!-- Generated by graphviz version 12.2.1 (20241206.2353)
 -->
<!-- Title: DepGraph Pages: 1 -->
<svg width="3194pt" height="441pt"
 viewBox="0.00 0.00 3193.93 440.80" xmlns="http://www.w3.org/2000/svg" xmlns:xlink="http://www.w3.org/1999/xlink">
<g id="graph0" class="graph" transform="scale(1 1) rotate(0) translate(14.4 426.4)">
<title>DepGraph</title>
<polygon fill="white" stroke="none" points="-14,14 -14,-426 3180,-426 3180,14 -14,14"/>
<!-- github.com/codemityio/notatio -->
<g id="node1" class="node">
<title>github.com/codemityio/notatio</title>
<polygon fill="#fcfcfc" stroke="#949494" points="509,-412 266,-412 266,-416 254,-416 254,-376 509,-376 509,-412"/>
<polyline fill="none" stroke="#949494" points="254,-412 266,-412"/>
<text text-anchor="middle" x="382" y="-389" font-family="Courier New" font-size="14.00">github.com/codemityio/notatio</text>
</g>
<!-- github.com/codemityio/notatio/cmd/coi -->
<g id="node2" class="node">
<title>github.com/codemityio/notatio/cmd/coi</title>
<polygon fill="#fcfcfc" stroke="#949494" points="321,-318 12,-318 12,-322 0,-322 0,-282 321,-282 321,-318"/>
<polyline fill="none" stroke="#949494" points="0,-318 12,-318"/>
<text text-anchor="middle" x="161" y="-295" font-family="Courier New" font-size="14.00">github.com/codemityio/notatio/cmd/coi</text>
</g>
<!-- github.com/codemityio/notatio&#45;&gt;github.com/codemityio/notatio/cmd/coi -->
<g id="edge1" class="edge">
<title>github.com/codemityio/notatio&#45;&gt;github.com/codemityio/notatio/cmd/coi</title>
<path fill="none" stroke="#a8a8a8" d="M288,-376C288,-376 288,-326 288,-326"/>
<polygon fill="#a8a8a8" stroke="#a8a8a8" points="290,-326 288,-320 286,-326 290,-326"/>
</g>
<!-- github.com/codemityio/notatio/cmd/fs -->
<g id="node3" class="node">
<title>github.com/codemityio/notatio/cmd/fs</title>
<polygon fill="#fcfcfc" stroke="#949494" points="3165,-318 2864,-318 2864,-322 2852,-322 2852,-282 3165,-282 3165,-318"/>
<polyline fill="none" stroke="#949494" points="2852,-318 2864,-318"/>
<text text-anchor="middle" x="3009" y="-295" font-family="Courier New" font-size="14.00">github.com/codemityio/notatio/cmd/fs</text>
</g>
<!-- github.com/codemityio/notatio&#45;&gt;github.com/codemityio/notatio/cmd/fs -->
<g id="edge2" class="edge">
<title>github.com/codemityio/notatio&#45;&gt;github.com/codemityio/notatio/cmd/fs</title>
<path fill="none" stroke="#a8a8a8" d="M510,-406C1036,-406 3009,-406 3009,-406 3009,-406 3009,-326 3009,-326"/>
<polygon fill="#a8a8a8" stroke="#a8a8a8" points="3011,-326 3009,-320 3007,-326 3011,-326"/>
</g>
<!-- github.com/codemityio/notatio/cmd/graphviz -->
<g id="node4" class="node">
<title>github.com/codemityio/notatio/cmd/graphviz</title>
<polygon fill="#fcfcfc" stroke="#949494" points="785,-318 434,-318 434,-322 422,-322 422,-282 785,-282 785,-318"/>
<polyline fill="none" stroke="#949494" points="422,-318 434,-318"/>
<text text-anchor="middle" x="604" y="-295" font-family="Courier New" font-size="14.00">github.com/codemityio/notatio/cmd/graphviz</text>
</g>
<!-- github.com/codemityio/notatio&#45;&gt;github.com/codemityio/notatio/cmd/graphviz -->
<g id="edge3" class="edge">
<title>github.com/codemityio/notatio&#45;&gt;github.com/codemityio/notatio/cmd/graphviz</title>
<path fill="none" stroke="#a8a8a8" d="M466,-376C466,-376 466,-326 466,-326"/>
<polygon fill="#a8a8a8" stroke="#a8a8a8" points="468,-326 466,-320 464,-326 468,-326"/>
</g>
<!-- github.com/codemityio/notatio/cmd/mermaid -->
<g id="node5" class="node">
<title>github.com/codemityio/notatio/cmd/mermaid</title>
<polygon fill="#fcfcfc" stroke="#949494" points="1240,-318 898,-318 898,-322 886,-322 886,-282 1240,-282 1240,-318"/>
<polyline fill="none" stroke="#949494" points="886,-318 898,-318"/>
<text text-anchor="middle" x="1063" y="-295" font-family="Courier New" font-size="14.00">github.com/codemityio/notatio/cmd/mermaid</text>
</g>
<!-- github.com/codemityio/notatio&#45;&gt;github.com/codemityio/notatio/cmd/mermaid -->
<g id="edge4" class="edge">
<title>github.com/codemityio/notatio&#45;&gt;github.com/codemityio/notatio/cmd/mermaid</title>
<path fill="none" stroke="#a8a8a8" d="M510,-382C707,-382 1063,-382 1063,-382 1063,-382 1063,-326 1063,-326"/>
<polygon fill="#a8a8a8" stroke="#a8a8a8" points="1065,-326 1063,-320 1061,-326 1065,-326"/>
</g>
<!-- github.com/codemityio/notatio/cmd/plantuml -->
<g id="node6" class="node">
<title>github.com/codemityio/notatio/cmd/plantuml</title>
<polygon fill="#fcfcfc" stroke="#949494" points="1703,-318 1352,-318 1352,-322 1340,-322 1340,-282 1703,-282 1703,-318"/>
<polyline fill="none" stroke="#949494" points="1340,-318 1352,-318"/>
<text text-anchor="middle" x="1522" y="-295" font-family="Courier New" font-size="14.00">github.com/codemityio/notatio/cmd/plantuml</text>
</g>
<!-- github.com/codemityio/notatio&#45;&gt;github.com/codemityio/notatio/cmd/plantuml -->
<g id="edge5" class="edge">
<title>github.com/codemityio/notatio&#45;&gt;github.com/codemityio/notatio/cmd/plantuml</title>
<path fill="none" stroke="#a8a8a8" d="M510,-388C807,-388 1522,-388 1522,-388 1522,-388 1522,-326 1522,-326"/>
<polygon fill="#a8a8a8" stroke="#a8a8a8" points="1524,-326 1522,-320 1520,-326 1524,-326"/>
</g>
<!-- github.com/codemityio/notatio/cmd/toc -->
<g id="node7" class="node">
<title>github.com/codemityio/notatio/cmd/toc</title>
<polygon fill="#fcfcfc" stroke="#949494" points="2125,-318 1816,-318 1816,-322 1804,-322 1804,-282 2125,-282 2125,-318"/>
<polyline fill="none" stroke="#949494" points="1804,-318 1816,-318"/>
<text text-anchor="middle" x="1965" y="-295" font-family="Courier New" font-size="14.00">github.com/codemityio/notatio/cmd/toc</text>
</g>
<!-- github.com/codemityio/notatio&#45;&gt;github.com/codemityio/notatio/cmd/toc -->
<g id="edge6" class="edge">
<title>github.com/codemityio/notatio&#45;&gt;github.com/codemityio/notatio/cmd/toc</title>
<path fill="none" stroke="#a8a8a8" d="M509,-394C886,-394 1965,-394 1965,-394 1965,-394 1965,-326 1965,-326"/>
<polygon fill="#a8a8a8" stroke="#a8a8a8" points="1967,-326 1965,-320 1963,-326 1967,-326"/>
</g>
<!-- github.com/codemityio/notatio/cmd/tol -->
<g id="node8" class="node">
<title>github.com/codemityio/notatio/cmd/tol</title>
<polygon fill="#fcfcfc" stroke="#949494" points="2547,-318 2238,-318 2238,-322 2226,-322 2226,-282 2547,-282 2547,-318"/>
<polyline fill="none" stroke="#949494" points="2226,-318 2238,-318"/>
<text text-anchor="middle" x="2387" y="-295" font-family="Courier New" font-size="14.00">github.com/codemityio/notatio/cmd/tol</text>
</g>
<!-- github.com/codemityio/notatio&#45;&gt;github.com/codemityio/notatio/cmd/tol -->
<g id="edge7" class="edge">
<title>github.com/codemityio/notatio&#45;&gt;github.com/codemityio/notatio/cmd/tol</title>
<path fill="none" stroke="#a8a8a8" d="M510,-400C952,-400 2387,-400 2387,-400 2387,-400 2387,-326 2387,-326"/>
<polygon fill="#a8a8a8" stroke="#a8a8a8" points="2389,-326 2387,-320 2385,-326 2389,-326"/>
</g>
<!-- github.com/urfave/cli/v2 -->
<g id="node9" class="node">
<title>github.com/urfave/cli/v2</title>
<polygon fill="#d4d4d4" stroke="#a6a6a6" points="489,-224 287,-224 287,-228 275,-228 275,-188 489,-188 489,-224"/>
<polyline fill="none" stroke="#a6a6a6" points="275,-224 287,-224"/>
<text text-anchor="middle" x="382" y="-201" font-family="Courier New" font-size="14.00">github.com/urfave/cli/v2</text>
</g>
<!-- github.com/codemityio/notatio&#45;&gt;github.com/urfave/cli/v2 -->
<g id="edge8" class="edge">
<title>github.com/codemityio/notatio&#45;&gt;github.com/urfave/cli/v2</title>
<path fill="none" stroke="#a8a8a8" d="M372,-376C372,-376 372,-232 372,-232"/>
<polygon fill="#a8a8a8" stroke="#a8a8a8" points="374,-232 372,-226 370,-232 374,-232"/>
</g>
<!-- github.com/codemityio/notatio/cmd/coi&#45;&gt;github.com/urfave/cli/v2 -->
<g id="edge9" class="edge">
<title>github.com/codemityio/notatio/cmd/coi&#45;&gt;github.com/urfave/cli/v2</title>
<path fill="none" stroke="#a8a8a8" d="M298,-282C298,-282 298,-232 298,-232"/>
<polygon fill="#a8a8a8" stroke="#a8a8a8" points="300,-232 298,-226 296,-232 300,-232"/>
</g>
<!-- github.com/codemityio/notatio/cmd/fs&#45;&gt;github.com/urfave/cli/v2 -->
<g id="edge10" class="edge">
<title>github.com/codemityio/notatio/cmd/fs&#45;&gt;github.com/urfave/cli/v2</title>
<path fill="none" stroke="#a8a8a8" d="M2956,-282C2956,-251 2956,-194 2956,-194 2956,-194 497,-194 497,-194"/>
<polygon fill="#a8a8a8" stroke="#a8a8a8" points="497,-192 491,-194 497,-196 497,-192"/>
</g>
<!-- golang.org/x/sys/unix -->
<g id="node10" class="node">
<title>golang.org/x/sys/unix</title>
<polygon fill="#d4d4d4" stroke="#a6a6a6" points="855,-36 678,-36 678,-40 666,-40 666,0 855,0 855,-36"/>
<polyline fill="none" stroke="#a6a6a6" points="666,-36 678,-36"/>
<text text-anchor="middle" x="761" y="-13" font-family="Courier New" font-size="14.00">golang.org/x/sys/unix</text>
</g>
<!-- github.com/codemityio/notatio/cmd/fs&#45;&gt;golang.org/x/sys/unix -->
<g id="edge11" class="edge">
<title>github.com/codemityio/notatio/cmd/fs&#45;&gt;golang.org/x/sys/unix</title>
<path fill="none" stroke="#a8a8a8" d="M3061,-282C3061,-220 3061,-18 3061,-18 3061,-18 863,-18 863,-18"/>
<polygon fill="#a8a8a8" stroke="#a8a8a8" points="863,-16 857,-18 863,-20 863,-16"/>
</g>
<!-- github.com/codemityio/notatio/cmd/graphviz&#45;&gt;github.com/urfave/cli/v2 -->
<g id="edge12" class="edge">
<title>github.com/codemityio/notatio/cmd/graphviz&#45;&gt;github.com/urfave/cli/v2</title>
<path fill="none" stroke="#a8a8a8" d="M456,-282C456,-282 456,-232 456,-232"/>
<polygon fill="#a8a8a8" stroke="#a8a8a8" points="458,-232 456,-226 453,-232 458,-232"/>
</g>
<!-- github.com/codemityio/notatio/cmd/mermaid&#45;&gt;github.com/urfave/cli/v2 -->
<g id="edge13" class="edge">
<title>github.com/codemityio/notatio/cmd/mermaid&#45;&gt;github.com/urfave/cli/v2</title>
<path fill="none" stroke="#a8a8a8" d="M1063,-282C1063,-258 1063,-218 1063,-218 1063,-218 496,-218 496,-218"/>
<polygon fill="#a8a8a8" stroke="#a8a8a8" points="496,-216 490,-218 496,-220 496,-216"/>
</g>
<!-- github.com/codemityio/notatio/cmd/plantuml&#45;&gt;github.com/urfave/cli/v2 -->
<g id="edge14" class="edge">
<title>github.com/codemityio/notatio/cmd/plantuml&#45;&gt;github.com/urfave/cli/v2</title>
<path fill="none" stroke="#a8a8a8" d="M1522,-282C1522,-256 1522,-212 1522,-212 1522,-212 496,-212 496,-212"/>
<polygon fill="#a8a8a8" stroke="#a8a8a8" points="496,-210 490,-212 496,-214 496,-210"/>
</g>
<!-- github.com/codemityio/notatio/cmd/toc&#45;&gt;github.com/urfave/cli/v2 -->
<g id="edge15" class="edge">
<title>github.com/codemityio/notatio/cmd/toc&#45;&gt;github.com/urfave/cli/v2</title>
<path fill="none" stroke="#a8a8a8" d="M1965,-282C1965,-255 1965,-206 1965,-206 1965,-206 496,-206 496,-206"/>
<polygon fill="#a8a8a8" stroke="#a8a8a8" points="496,-204 490,-206 496,-208 496,-204"/>
</g>
<!-- github.com/codemityio/notatio/cmd/tol&#45;&gt;github.com/urfave/cli/v2 -->
<g id="edge16" class="edge">
<title>github.com/codemityio/notatio/cmd/tol&#45;&gt;github.com/urfave/cli/v2</title>
<path fill="none" stroke="#a8a8a8" d="M2387,-282C2387,-253 2387,-200 2387,-200 2387,-200 497,-200 497,-200"/>
<polygon fill="#a8a8a8" stroke="#a8a8a8" points="497,-198 491,-200 497,-202 497,-198"/>
</g>
<!-- github.com/cpuguy83/go&#45;md2man/v2/md2man -->
<g id="node11" class="node">
<title>github.com/cpuguy83/go&#45;md2man/v2/md2man</title>
<polygon fill="#d4d4d4" stroke="#a6a6a6" points="361,-130 35,-130 35,-134 23,-134 23,-94 361,-94 361,-130"/>
<polyline fill="none" stroke="#a6a6a6" points="23,-130 35,-130"/>
<text text-anchor="middle" x="192" y="-107" font-family="Courier New" font-size="14.00">github.com/cpuguy83/go&#45;md2man/v2/md2man</text>
</g>
<!-- github.com/urfave/cli/v2&#45;&gt;github.com/cpuguy83/go&#45;md2man/v2/md2man -->
<g id="edge18" class="edge">
<title>github.com/urfave/cli/v2&#45;&gt;github.com/cpuguy83/go&#45;md2man/v2/md2man</title>
<path fill="none" stroke="#a8a8a8" d="M318,-188C318,-188 318,-138 318,-138"/>
<polygon fill="#a8a8a8" stroke="#a8a8a8" points="320,-138 318,-132 315,-138 320,-138"/>
</g>
<!-- github.com/xrash/smetrics -->
<g id="node13" class="node">
<title>github.com/xrash/smetrics</title>
<polygon fill="#d4d4d4" stroke="#a6a6a6" points="684,-130 474,-130 474,-134 462,-134 462,-94 684,-94 684,-130"/>
<polyline fill="none" stroke="#a6a6a6" points="462,-130 474,-130"/>
<text text-anchor="middle" x="573" y="-107" font-family="Courier New" font-size="14.00">github.com/xrash/smetrics</text>
</g>
<!-- github.com/urfave/cli/v2&#45;&gt;github.com/xrash/smetrics -->
<g id="edge19" class="edge">
<title>github.com/urfave/cli/v2&#45;&gt;github.com/xrash/smetrics</title>
<path fill="none" stroke="#a8a8a8" d="M475,-188C475,-188 475,-138 475,-138"/>
<polygon fill="#a8a8a8" stroke="#a8a8a8" points="477,-138 475,-132 473,-138 477,-138"/>
</g>
<!-- github.com/russross/blackfriday/v2 -->
<g id="node12" class="node">
<title>github.com/russross/blackfriday/v2</title>
<polygon fill="#d4d4d4" stroke="#a6a6a6" points="490,-36 205,-36 205,-40 193,-40 193,0 490,0 490,-36"/>
<polyline fill="none" stroke="#a6a6a6" points="193,-36 205,-36"/>
<text text-anchor="middle" x="342" y="-13" font-family="Courier New" font-size="14.00">github.com/russross/blackfriday/v2</text>
</g>
<!-- github.com/cpuguy83/go&#45;md2man/v2/md2man&#45;&gt;github.com/russross/blackfriday/v2 -->
<g id="edge17" class="edge">
<title>github.com/cpuguy83/go&#45;md2man/v2/md2man&#45;&gt;github.com/russross/blackfriday/v2</title>
<path fill="none" stroke="#a8a8a8" d="M277,-94C277,-94 277,-44 277,-44"/>
<polygon fill="#a8a8a8" stroke="#a8a8a8" points="279,-44 277,-38 275,-44 279,-44"/>
</g>
</g>
</svg>
