<?xml version="1.0" encoding="UTF-8" standalone="no"?>
<!DOCTYPE svg PUBLIC "-//W3C//DTD SVG 1.1//EN"
 "http://www.w3.org/Graphics/SVG/1.1/DTD/svg11.dtd">
<!-- Generated by graphviz version 12.2.1 (20241206.2353)
 -->
<!-- Title: DepGraph Pages: 1 -->
<svg width="2656pt" height="535pt"
 viewBox="0.00 0.00 2656.30 534.80" xmlns="http://www.w3.org/2000/svg" xmlns:xlink="http://www.w3.org/1999/xlink">
<g id="graph0" class="graph" transform="scale(1 1) rotate(0) translate(14.4 520.4)">
<title>DepGraph</title>
<polygon fill="white" stroke="none" points="-14,14 -14,-520 2642,-520 2642,14 -14,14"/>
<!-- github.com/codemityio/notatio -->
<g id="node1" class="node">
<title>github.com/codemityio/notatio</title>
<polygon fill="#fcfcfc" stroke="#949494" points="438,-506 194,-506 194,-510 182,-510 182,-470 438,-470 438,-506"/>
<polyline fill="none" stroke="#949494" points="182,-506 194,-506"/>
<text text-anchor="middle" x="310" y="-483" font-family="Courier New" font-size="14.00">github.com/codemityio/notatio</text>
</g>
<!-- github.com/codemityio/notatio/cmd/coi -->
<g id="node2" class="node">
<title>github.com/codemityio/notatio/cmd/coi</title>
<polygon fill="#fcfcfc" stroke="#949494" points="717,-318 407,-318 407,-322 395,-322 395,-282 717,-282 717,-318"/>
<polyline fill="none" stroke="#949494" points="395,-318 407,-318"/>
<text text-anchor="middle" x="556" y="-295" font-family="Courier New" font-size="14.00">github.com/codemityio/notatio/cmd/coi</text>
</g>
<!-- github.com/codemityio/notatio&#45;&gt;github.com/codemityio/notatio/cmd/coi -->
<g id="edge1" class="edge">
<title>github.com/codemityio/notatio&#45;&gt;github.com/codemityio/notatio/cmd/coi</title>
<path fill="none" stroke="#a8a8a8" d="M401,-470C401,-470 401,-326 401,-326"/>
<polygon fill="#a8a8a8" stroke="#a8a8a8" points="403,-326 401,-320 398,-326 403,-326"/>
</g>
<!-- github.com/codemityio/notatio/cmd/graphviz -->
<g id="node3" class="node">
<title>github.com/codemityio/notatio/cmd/graphviz</title>
<polygon fill="#fcfcfc" stroke="#949494" points="966,-412 616,-412 616,-416 604,-416 604,-376 966,-376 966,-412"/>
<polyline fill="none" stroke="#949494" points="604,-412 616,-412"/>
<text text-anchor="middle" x="785" y="-389" font-family="Courier New" font-size="14.00">github.com/codemityio/notatio/cmd/graphviz</text>
</g>
<!-- github.com/codemityio/notatio&#45;&gt;github.com/codemityio/notatio/cmd/graphviz -->
<g id="edge2" class="edge">
<title>github.com/codemityio/notatio&#45;&gt;github.com/codemityio/notatio/cmd/graphviz</title>
<path fill="none" stroke="#a8a8a8" d="M432,-470C432,-444 432,-400 432,-400 432,-400 596,-400 596,-400"/>
<polygon fill="#a8a8a8" stroke="#a8a8a8" points="596,-402 602,-400 596,-398 596,-402"/>
</g>
<!-- github.com/codemityio/notatio/cmd/mermaid -->
<g id="node4" class="node">
<title>github.com/codemityio/notatio/cmd/mermaid</title>
<polygon fill="#fcfcfc" stroke="#949494" points="1448,-412 1106,-412 1106,-416 1094,-416 1094,-376 1448,-376 1448,-412"/>
<polyline fill="none" stroke="#949494" points="1094,-412 1106,-412"/>
<text text-anchor="middle" x="1271" y="-389" font-family="Courier New" font-size="14.00">github.com/codemityio/notatio/cmd/mermaid</text>
</g>
<!-- github.com/codemityio/notatio&#45;&gt;github.com/codemityio/notatio/cmd/mermaid -->
<g id="edge3" class="edge">
<title>github.com/codemityio/notatio&#45;&gt;github.com/codemityio/notatio/cmd/mermaid</title>
<path fill="none" stroke="#a8a8a8" d="M427,-470C427,-457 427,-441 427,-441 427,-441 1271,-441 1271,-441 1271,-441 1271,-420 1271,-420"/>
<polygon fill="#a8a8a8" stroke="#a8a8a8" points="1273,-420 1271,-414 1269,-420 1273,-420"/>
</g>
<!-- github.com/codemityio/notatio/cmd/plantuml -->
<g id="node5" class="node">
<title>github.com/codemityio/notatio/cmd/plantuml</title>
<polygon fill="#fcfcfc" stroke="#949494" points="2114,-412 1764,-412 1764,-416 1752,-416 1752,-376 2114,-376 2114,-412"/>
<polyline fill="none" stroke="#949494" points="1752,-412 1764,-412"/>
<text text-anchor="middle" x="1933" y="-389" font-family="Courier New" font-size="14.00">github.com/codemityio/notatio/cmd/plantuml</text>
</g>
<!-- github.com/codemityio/notatio&#45;&gt;github.com/codemityio/notatio/cmd/plantuml -->
<g id="edge4" class="edge">
<title>github.com/codemityio/notatio&#45;&gt;github.com/codemityio/notatio/cmd/plantuml</title>
<path fill="none" stroke="#a8a8a8" d="M422,-470C422,-435 422,-364 422,-364 422,-364 1796,-364 1796,-364 1796,-364 1796,-368 1796,-368"/>
<polygon fill="#a8a8a8" stroke="#a8a8a8" points="1793,-368 1796,-374 1798,-368 1793,-368"/>
</g>
<!-- github.com/codemityio/notatio/cmd/toc -->
<g id="node6" class="node">
<title>github.com/codemityio/notatio/cmd/toc</title>
<polygon fill="#fcfcfc" stroke="#949494" points="2205,-318 1895,-318 1895,-322 1883,-322 1883,-282 2205,-282 2205,-318"/>
<polyline fill="none" stroke="#949494" points="1883,-318 1895,-318"/>
<text text-anchor="middle" x="2044" y="-295" font-family="Courier New" font-size="14.00">github.com/codemityio/notatio/cmd/toc</text>
</g>
<!-- github.com/codemityio/notatio&#45;&gt;github.com/codemityio/notatio/cmd/toc -->
<g id="edge5" class="edge">
<title>github.com/codemityio/notatio&#45;&gt;github.com/codemityio/notatio/cmd/toc</title>
<path fill="none" stroke="#a8a8a8" d="M411,-470C411,-430 411,-341 411,-341 411,-341 1999,-341 1999,-341 1999,-341 1999,-326 1999,-326"/>
<polygon fill="#a8a8a8" stroke="#a8a8a8" points="2001,-326 1999,-320 1997,-326 2001,-326"/>
</g>
<!-- github.com/codemityio/notatio/cmd/tol -->
<g id="node7" class="node">
<title>github.com/codemityio/notatio/cmd/tol</title>
<polygon fill="#fcfcfc" stroke="#949494" points="2628,-318 2318,-318 2318,-322 2306,-322 2306,-282 2628,-282 2628,-318"/>
<polyline fill="none" stroke="#949494" points="2306,-318 2318,-318"/>
<text text-anchor="middle" x="2467" y="-295" font-family="Courier New" font-size="14.00">github.com/codemityio/notatio/cmd/tol</text>
</g>
<!-- github.com/codemityio/notatio&#45;&gt;github.com/codemityio/notatio/cmd/tol -->
<g id="edge6" class="edge">
<title>github.com/codemityio/notatio&#45;&gt;github.com/codemityio/notatio/cmd/tol</title>
<path fill="none" stroke="#a8a8a8" d="M416,-470C416,-433 416,-353 416,-353 416,-353 2467,-353 2467,-353 2467,-353 2467,-326 2467,-326"/>
<polygon fill="#a8a8a8" stroke="#a8a8a8" points="2469,-326 2467,-320 2465,-326 2469,-326"/>
</g>
<!-- github.com/codemityio/notatio/internal/app -->
<g id="node8" class="node">
<title>github.com/codemityio/notatio/internal/app</title>
<polygon fill="#fcfcfc" stroke="#949494" points="1573,-318 1297,-318 1297,-322 1285,-322 1285,-282 1573,-282 1573,-318"/>
<polyline fill="none" stroke="#949494" points="1285,-318 1297,-318"/>
<text text-anchor="middle" x="1429" y="-295" font-family="Courier New" font-size="14.00">github.com/codemityio/notatio/app</text>
</g>
<!-- github.com/codemityio/notatio&#45;&gt;github.com/codemityio/notatio/internal/app -->
<g id="edge7" class="edge">
<title>github.com/codemityio/notatio&#45;&gt;github.com/codemityio/notatio/internal/app</title>
<path fill="none" stroke="#a8a8a8" d="M406,-470C406,-428 406,-330 406,-330 406,-330 1339,-330 1339,-330 1339,-330 1339,-326 1339,-326"/>
<polygon fill="#a8a8a8" stroke="#a8a8a8" points="1341,-326 1339,-320 1337,-326 1341,-326"/>
</g>
<!-- github.com/urfave/cli/v2 -->
<g id="node9" class="node">
<title>github.com/urfave/cli/v2</title>
<polygon fill="#d4d4d4" stroke="#a6a6a6" points="436,-224 234,-224 234,-228 222,-228 222,-188 436,-188 436,-224"/>
<polyline fill="none" stroke="#a6a6a6" points="222,-224 234,-224"/>
<text text-anchor="middle" x="329" y="-201" font-family="Courier New" font-size="14.00">github.com/urfave/cli/v2</text>
</g>
<!-- github.com/codemityio/notatio&#45;&gt;github.com/urfave/cli/v2 -->
<g id="edge8" class="edge">
<title>github.com/codemityio/notatio&#45;&gt;github.com/urfave/cli/v2</title>
<path fill="none" stroke="#a8a8a8" d="M280,-470C280,-470 280,-232 280,-232"/>
<polygon fill="#a8a8a8" stroke="#a8a8a8" points="282,-232 280,-226 278,-232 282,-232"/>
</g>
<!-- github.com/codemityio/notatio/cmd/coi&#45;&gt;github.com/urfave/cli/v2 -->
<g id="edge9" class="edge">
<title>github.com/codemityio/notatio/cmd/coi&#45;&gt;github.com/urfave/cli/v2</title>
<path fill="none" stroke="#a8a8a8" d="M416,-282C416,-282 416,-232 416,-232"/>
<polygon fill="#a8a8a8" stroke="#a8a8a8" points="418,-232 416,-226 413,-232 418,-232"/>
</g>
<!-- github.com/codemityio/notatio/cmd/graphviz&#45;&gt;github.com/codemityio/notatio/internal/app -->
<g id="edge10" class="edge">
<title>github.com/codemityio/notatio/cmd/graphviz&#45;&gt;github.com/codemityio/notatio/internal/app</title>
<path fill="none" stroke="#a8a8a8" d="M841,-376C841,-349 841,-300 841,-300 841,-300 1277,-300 1277,-300"/>
<polygon fill="#a8a8a8" stroke="#a8a8a8" points="1277,-302 1283,-300 1277,-298 1277,-302"/>
</g>
<!-- github.com/codemityio/notatio/cmd/graphviz&#45;&gt;github.com/urfave/cli/v2 -->
<g id="edge11" class="edge">
<title>github.com/codemityio/notatio/cmd/graphviz&#45;&gt;github.com/urfave/cli/v2</title>
<path fill="none" stroke="#a8a8a8" d="M603,-388C479,-388 337,-388 337,-388 337,-388 337,-232 337,-232"/>
<polygon fill="#a8a8a8" stroke="#a8a8a8" points="340,-232 337,-226 335,-232 340,-232"/>
</g>
<!-- github.com/codemityio/notatio/cmd/mermaid&#45;&gt;github.com/codemityio/notatio/internal/app -->
<g id="edge12" class="edge">
<title>github.com/codemityio/notatio/cmd/mermaid&#45;&gt;github.com/codemityio/notatio/internal/app</title>
<path fill="none" stroke="#a8a8a8" d="M1394,-376C1394,-376 1394,-326 1394,-326"/>
<polygon fill="#a8a8a8" stroke="#a8a8a8" points="1396,-326 1394,-320 1391,-326 1396,-326"/>
</g>
<!-- github.com/codemityio/notatio/cmd/mermaid&#45;&gt;github.com/urfave/cli/v2 -->
<g id="edge13" class="edge">
<title>github.com/codemityio/notatio/cmd/mermaid&#45;&gt;github.com/urfave/cli/v2</title>
<path fill="none" stroke="#a8a8a8" d="M1189,-376C1189,-331 1189,-218 1189,-218 1189,-218 444,-218 444,-218"/>
<polygon fill="#a8a8a8" stroke="#a8a8a8" points="444,-216 438,-218 444,-220 444,-216"/>
</g>
<!-- github.com/codemityio/notatio/cmd/plantuml&#45;&gt;github.com/codemityio/notatio/internal/app -->
<g id="edge14" class="edge">
<title>github.com/codemityio/notatio/cmd/plantuml&#45;&gt;github.com/codemityio/notatio/internal/app</title>
<path fill="none" stroke="#a8a8a8" d="M1751,-394C1637,-394 1511,-394 1511,-394 1511,-394 1511,-326 1511,-326"/>
<polygon fill="#a8a8a8" stroke="#a8a8a8" points="1513,-326 1511,-320 1508,-326 1513,-326"/>
</g>
<!-- github.com/codemityio/notatio/cmd/plantuml&#45;&gt;github.com/urfave/cli/v2 -->
<g id="edge15" class="edge">
<title>github.com/codemityio/notatio/cmd/plantuml&#45;&gt;github.com/urfave/cli/v2</title>
<path fill="none" stroke="#a8a8a8" d="M1839,-376C1839,-328 1839,-206 1839,-206 1839,-206 444,-206 444,-206"/>
<polygon fill="#a8a8a8" stroke="#a8a8a8" points="444,-204 438,-206 444,-208 444,-204"/>
</g>
<!-- github.com/codemityio/notatio/cmd/toc&#45;&gt;github.com/urfave/cli/v2 -->
<g id="edge16" class="edge">
<title>github.com/codemityio/notatio/cmd/toc&#45;&gt;github.com/urfave/cli/v2</title>
<path fill="none" stroke="#a8a8a8" d="M2044,-282C2044,-253 2044,-200 2044,-200 2044,-200 444,-200 444,-200"/>
<polygon fill="#a8a8a8" stroke="#a8a8a8" points="444,-198 438,-200 444,-202 444,-198"/>
</g>
<!-- github.com/codemityio/notatio/cmd/tol&#45;&gt;github.com/urfave/cli/v2 -->
<g id="edge17" class="edge">
<title>github.com/codemityio/notatio/cmd/tol&#45;&gt;github.com/urfave/cli/v2</title>
<path fill="none" stroke="#a8a8a8" d="M2467,-282C2467,-251 2467,-194 2467,-194 2467,-194 444,-194 444,-194"/>
<polygon fill="#a8a8a8" stroke="#a8a8a8" points="444,-192 438,-194 444,-196 444,-192"/>
</g>
<!-- github.com/codemityio/notatio/internal/app&#45;&gt;github.com/urfave/cli/v2 -->
<g id="edge18" class="edge">
<title>github.com/codemityio/notatio/internal/app&#45;&gt;github.com/urfave/cli/v2</title>
<path fill="none" stroke="#a8a8a8" d="M1429,-282C1429,-256 1429,-212 1429,-212 1429,-212 444,-212 444,-212"/>
<polygon fill="#a8a8a8" stroke="#a8a8a8" points="444,-210 438,-212 444,-214 444,-210"/>
</g>
<!-- github.com/cpuguy83/go&#45;md2man/v2/md2man -->
<g id="node11" class="node">
<title>github.com/cpuguy83/go&#45;md2man/v2/md2man</title>
<polygon fill="#d4d4d4" stroke="#a6a6a6" points="338,-130 12,-130 12,-134 0,-134 0,-94 338,-94 338,-130"/>
<polyline fill="none" stroke="#a6a6a6" points="0,-130 12,-130"/>
<text text-anchor="middle" x="169" y="-107" font-family="Courier New" font-size="14.00">github.com/cpuguy83/go&#45;md2man/v2/md2man</text>
</g>
<!-- github.com/urfave/cli/v2&#45;&gt;github.com/cpuguy83/go&#45;md2man/v2/md2man -->
<g id="edge20" class="edge">
<title>github.com/urfave/cli/v2&#45;&gt;github.com/cpuguy83/go&#45;md2man/v2/md2man</title>
<path fill="none" stroke="#a8a8a8" d="M280,-188C280,-188 280,-138 280,-138"/>
<polygon fill="#a8a8a8" stroke="#a8a8a8" points="282,-138 280,-132 278,-138 282,-138"/>
</g>
<!-- github.com/xrash/smetrics -->
<g id="node13" class="node">
<title>github.com/xrash/smetrics</title>
<polygon fill="#d4d4d4" stroke="#a6a6a6" points="621,-36 411,-36 411,-40 399,-40 399,0 621,0 621,-36"/>
<polyline fill="none" stroke="#a6a6a6" points="399,-36 411,-36"/>
<text text-anchor="middle" x="510" y="-13" font-family="Courier New" font-size="14.00">github.com/xrash/smetrics</text>
</g>
<!-- github.com/urfave/cli/v2&#45;&gt;github.com/xrash/smetrics -->
<g id="edge21" class="edge">
<title>github.com/urfave/cli/v2&#45;&gt;github.com/xrash/smetrics</title>
<path fill="none" stroke="#a8a8a8" d="M417,-188C417,-188 417,-44 417,-44"/>
<polygon fill="#a8a8a8" stroke="#a8a8a8" points="419,-44 417,-38 415,-44 419,-44"/>
</g>
<!-- github.com/codemityio/notatio/internal/graph -->
<g id="node10" class="node">
<title>github.com/codemityio/notatio/internal/graph</title>
<polygon fill="#fcfcfc" stroke="#949494" points="843,-506 551,-506 551,-510 539,-510 539,-470 843,-470 843,-506"/>
<polyline fill="none" stroke="#949494" points="539,-506 551,-506"/>
<text text-anchor="middle" x="691" y="-483" font-family="Courier New" font-size="14.00">github.com/codemityio/notatio/graph</text>
</g>
<!-- github.com/russross/blackfriday/v2 -->
<g id="node12" class="node">
<title>github.com/russross/blackfriday/v2</title>
<polygon fill="#d4d4d4" stroke="#a6a6a6" points="298,-36 14,-36 14,-40 2,-40 2,0 298,0 298,-36"/>
<polyline fill="none" stroke="#a6a6a6" points="2,-36 14,-36"/>
<text text-anchor="middle" x="150" y="-13" font-family="Courier New" font-size="14.00">github.com/russross/blackfriday/v2</text>
</g>
<!-- github.com/cpuguy83/go&#45;md2man/v2/md2man&#45;&gt;github.com/russross/blackfriday/v2 -->
<g id="edge19" class="edge">
<title>github.com/cpuguy83/go&#45;md2man/v2/md2man&#45;&gt;github.com/russross/blackfriday/v2</title>
<path fill="none" stroke="#a8a8a8" d="M150,-94C150,-94 150,-44 150,-44"/>
<polygon fill="#a8a8a8" stroke="#a8a8a8" points="152,-44 150,-38 148,-44 152,-44"/>
</g>
</g>
</svg>
